<svg version="1" xmlns="http://www.w3.org/2000/svg" width="1130.667" height="1130.667" viewBox="0 0 848.000000 848.000000"><path d="M380.5 8.6c-7.2.6-32.6 4.2-42 6C241.6 33.3 153.1 86 92.4 161.1 77.2 180 57 209.2 57 212.4c0 .7-.8 2.1-1.9 3-2.6 2.4-21 39.7-26.6 54.1C15.8 302 8.3 331 2.8 368c-2 14-2.3 19.1-2.3 53 0 33.7.3 39.1 2.3 53 6.4 43.6 15.9 77.6 31.8 113.6 32.7 73.8 88.2 138.6 156 181.9 73.3 46.9 160 70.1 245.3 65.6 67.9-3.6 130.1-21.7 187.6-54.6 93.8-53.6 163-140.5 193-242.5 6.6-22.4 11.6-47.6 14.7-74.5 1.7-14.6 1.7-68 0-84.5C816.6 238.8 730.6 115 604 51.9c-43.3-21.6-80.2-33.2-128.5-40.6-15.6-2.4-20-2.6-53.5-2.8-20.1-.1-38.7-.1-41.5.1zM638.4 393c35 140 63.8 255.3 64 256.2.4 1.7-2.9 1.8-59.3 1.8h-59.7l-2.3-13.3c-1.2-7.2-3-17.7-4.1-23.2-3.3-17.8-5.9-32-17.1-94-16.7-92.8-18.9-104.9-19.5-105.4-.2-.3-1.1.2-1.8 1s-30.1 53.4-65.1 116.9c-35.1 63.5-64.3 116.1-65 116.8-.9 1-6.7-9.7-27.3-50.5-14.3-28.5-32-63.3-39.2-77.3-7.1-14-22.1-43.6-33.3-65.7-11.1-22.2-20.7-40.3-21.3-40.3-1.1 0-2 4.7-7.9 38.5-1.5 8.2-4.2 23.3-6 33.5-1.8 10.2-4.5 25.2-6 33.5-1.4 8.2-3.7 20.6-5 27.5-1.3 6.9-3.3 17.7-4.4 24-1.1 6.3-4.1 22.7-6.5 36.5-2.5 13.7-5 27.9-5.6 31.5-.6 3.6-1.3 7.3-1.6 8.2-.5 1.7-4.2 1.8-59.2 1.8h-58.8l13.8-55.3c7.6-30.3 18.2-73.2 23.7-95.2C210 315.3 254.3 139 254.9 139c.7 0 1.8 2.2 36.2 68 13.9 26.7 36.6 70.3 50.6 97 13.9 26.7 35.3 67.7 47.5 91.2 12.3 23.6 22.6 42.8 22.9 42.8.3 0 12.5-22.2 27.1-49.3C552.3 178.6 574.3 138 574.6 138.2c.2.2 28.9 114.9 63.8 254.8z"/></svg>