<svg xmlns="http://www.w3.org/2000/svg" width="40" height="40"><path d="M20 40C8.954 40 0 31.046 0 20S8.954 0 20 0s20 8.954 20 20-8.954 20-20 20zm0-38C10.06 2 2 10.06 2 20s8.06 18 18 18 18-8.06 18-18S29.94 2 20 2zm9.915 25.85h-8.262c-.685 0-1.24-.556-1.24-1.24 0-.685.555-1.24 1.24-1.24h8.262c.685 0 1.24.555 1.24 1.24 0 .684-.555 1.24-1.24 1.24zm-16.05.037c-.484.484-1.268.484-1.752 0-.485-.484-.485-1.27 0-1.753l14.022-14.022c.484-.484 1.268-.484 1.752 0s.484 1.27 0 1.753L13.865 27.887zm5.31-13.258H16.28v2.89c0 .684-.555 1.24-1.24 1.24-.684 0-1.24-.556-1.24-1.24v-2.89h-2.89c-.685 0-1.24-.557-1.24-1.24 0-.686.555-1.24 1.24-1.24h2.89V9.257c0-.685.556-1.24 1.24-1.24.685 0 1.24.555 1.24 1.24v2.892h2.892c.684 0 1.24.555 1.24 1.24 0 .684-.556 1.24-1.24 1.24z"/></svg>