<svg xmlns="http://www.w3.org/2000/svg" width="40" height="37"><path d="M14.608 11.926c.667-.673 1.556-1.046 2.502-1.046.947 0 1.827.373 2.502 1.046.667.672 1.037 1.568 1.037 2.523 0 .95-.37 1.85-1.04 2.52-.67.67-1.56 1.04-2.5 1.04-.95 0-1.84-.38-2.51-1.05-.67-.67-1.04-1.57-1.04-2.526 0-.956.37-1.85 1.033-2.524zm1.4 3.635c.296.29.682.46 1.102.46.42 0 .807-.15 1.103-.45.296-.3.453-.69.453-1.11 0-.42-.157-.81-.453-1.11-.296-.29-.683-.454-1.103-.454-.42 0-.806.158-1.103.457-.288.296-.452.69-.452 1.11 0 .42.156.81.452 1.11zM28.73 20c1.374 1.387 1.374 3.653 0 5.04-.667.67-1.556 1.045-2.502 1.045-.947 0-1.836-.374-2.502-1.046-1.375-1.39-1.375-3.66 0-5.04.674-.67 1.555-1.05 2.502-1.05.946 0 1.835.37 2.502 1.04zm-3.605 3.636c.296.29.683.457 1.103.457.42 0 .806-.158 1.103-.457.61-.614.61-1.61 0-2.224-.29-.29-.68-.456-1.1-.456-.42 0-.8.158-1.1.456-.61.614-.61 1.61 0 2.224zm-9.655 2.06c-.255 0-.51-.1-.7-.292-.386-.39-.386-1.02 0-1.41l12.133-12.226c.386-.39 1.012-.39 1.4-.01.386.392.386 1.023 0 1.413L16.17 25.41c-.198.19-.445.29-.7.29zm19.16 5.883C31.17 35.07 26.56 37 21.663 37c-4.898 0-9.507-1.926-12.972-5.42-3.46-3.495-5.37-8.143-5.37-13.08v-.21l-1.63 1.645c-.38.39-1.01.39-1.4 0-.38-.39-.38-1.02 0-1.41l3.32-3.346c.39-.39 1.01-.39 1.4 0l3.31 3.34c.39.39.39 1.02 0 1.41-.2.19-.44.29-.7.29-.25 0-.51-.1-.7-.29l-1.63-1.65v.21C5.29 27.592 12.63 35 21.66 35c9.03 0 16.37-7.403 16.37-16.507 0-9.107-7.342-16.51-16.37-16.5-4.453 0-8.61 1.766-11.72 4.98-.39.39-1.013.397-1.4.015-.387-.39-.395-1.02-.017-1.41C12 1.983 16.668 0 21.653 0c4.9 0 9.507 1.924 12.972 5.42C38.09 8.912 40 13.56 40 18.5c0 4.937-1.902 9.585-5.367 13.08z"/></svg>