<svg xmlns="http://www.w3.org/2000/svg" width="17" height="21"><path d="M11.243 12.026v-.92L12.35 9.9c.632-.688.98-1.578.98-2.506V4.41c0-2.19-1.802-3.97-4.016-3.97H7.552c-2.214 0-4.016 1.78-4.016 3.97v2.983c0 .93.348 1.82.98 2.506l1.107 1.203v.92H3.957C1.777 12.026 0 13.78 0 15.936v4.226c0 .464.382.84.85.84h15.166c.468 0 .848-.376.848-.84V15.94c0-2.158-1.774-3.91-3.956-3.91h-1.665zm3.924 7.295H1.7v-3.38c0-1.23 1.012-2.233 2.257-2.233h2.515c.468 0 .848-.375.848-.84v-2.113c0-.28-.14-.532-.36-.684l-1.187-1.3c-.347-.376-.538-.866-.538-1.377V4.41c0-1.265 1.04-2.293 2.318-2.293h1.762c1.278 0 2.318 1.028 2.318 2.292v2.98c0 .51-.19 1-.538 1.378l-1.19 1.296c-.217.152-.36.403-.36.686v2.113c0 .464.38.84.85.84h2.515c1.244 0 2.257 1 2.257 2.232v3.384z"/></svg>