<svg xmlns="http://www.w3.org/2000/svg" width="42" height="38"><path fill-rule="evenodd" fill="#FFF" d="M36.874 2.13c0-.764-.383-1.45-1.024-1.835-.644-.387-1.42-.395-2.072-.02-6.236 3.573-13.02 5.66-20.164 6.203-.054.004-6.51.033-6.51.033-1.622 0-2.962 1.26-3.148 2.87H2.63C1.18 9.38 0 10.59 0 12.07v5.924c0 1.487 1.18 2.696 2.63 2.696h1.326c.134 1.16.865 2.134 1.87 2.59l4.715 13.333c.3.83 1.08 1.387 1.94 1.387h4.73c.67 0 1.3-.336 1.69-.9.39-.562.48-1.284.25-1.928l-4.05-11.45c6.6.702 12.88 2.74 18.69 6.066.32.183.67.275 1.02.275.36 0 .728-.1 1.05-.296.648-.386 1.03-1.07 1.03-1.833V21.01c2.88-.385 5.12-2.918 5.12-5.98 0-3.06-2.24-5.594-5.124-5.977V2.13zM2.63 18.61c-.33 0-.6-.276-.6-.616V12.07c0-.338.27-.615.6-.615h1.303v7.156H2.63zm3.333 1.697V9.757c0-.643.512-1.167 1.14-1.167h5.524v12.886s-5.572-.002-5.596-.004c-.2-.024-.24-.035-.39-.098-.4-.183-.67-.592-.67-1.067zm11.268 15.6c0 .014-.01.014-.02.014h-4.73c-.01 0-.02 0-.02-.01L8.09 23.56h4.793l4.36 12.33c.004.01.006.016-.002.03zm17.6-7.933c-.02.015-.04.006-.05 0-6.233-3.574-13-5.72-20.11-6.385V8.47c7.115-.666 13.877-2.81 20.11-6.385.015-.008.03-.017.057 0 .02.012.02.024.02.04V27.93c0 .016 0 .028-.02.04zm2.05-16.817c1.77.363 3.1 1.962 3.1 3.874 0 1.92-1.33 3.52-3.09 3.88v-7.75z"/></svg>