<svg xmlns="http://www.w3.org/2000/svg" width="43" height="30"><path d="M14.747 23.138c0-1.766-1.437-3.203-3.203-3.203-1.765 0-3.202 1.437-3.202 3.203 0 1.765 1.437 3.202 3.202 3.202 1.766 0 3.203-1.437 3.203-3.202zm-1.373 0c0 1.01-.82 1.83-1.83 1.83-1.01 0-1.83-.82-1.83-1.83 0-1.01.82-1.83 1.83-1.83 1.01 0 1.83.82 1.83 1.83zm14.88 0c0 1.765 1.436 3.202 3.2 3.202 1.767 0 3.204-1.437 3.204-3.202 0-1.766-1.437-3.203-3.203-3.203-1.765 0-3.202 1.437-3.202 3.203zm1.372 0c0-1.01.82-1.83 1.83-1.83 1.008 0 1.83.82 1.83 1.83 0 1.01-.822 1.83-1.83 1.83-1.01 0-1.83-.82-1.83-1.83zM14.756 4.116c.378 0 .685-.308.685-.686 0-.38-.3-.687-.68-.687h-2.18c-.95 0-2.47.657-3.12 1.35l-5.5 5.844c-.18.2-.23.49-.13.742.11.25.36.41.63.41h26.56c.24 0 .46-.12.58-.32.13-.2.15-.45.05-.66l-2.83-6.07c-.3-.65-1.334-1.3-2.05-1.3H17.5c-.38 0-.686.3-.686.68v6.29H6.044l4.408-4.687c.388-.413 1.562-.92 2.128-.92h2.175zm12.003 0c.2.01.71.337.8.51l2.37 5.094H18.18V4.116h8.574zM38.8 11.26c-.002-.008-3.21-1.07-3.21-1.07-.535-.18-1.24-.81-1.482-1.32l-2.82-6C30.53 1.255 28.54-.01 26.756-.01H12.58c-1.706 0-3.957.973-5.126 2.215l-6.327 6.73C.495 9.607 0 10.857 0 11.78v8.613c0 1.89 1.54 3.43 3.43 3.43h1.287C5.062 27.288 7.992 30 11.544 30s6.482-2.713 6.828-6.176h4.163c.38 0 .686-.307.686-.686 0-.38-.3-.686-.68-.686h-4.16c-.34-3.463-3.27-6.176-6.82-6.176-3.55 0-6.48 2.713-6.83 6.176h-1.3c-1.13 0-2.05-.924-2.05-2.06V11.78c0-.578.36-1.483.754-1.903L8.46 3.153c.91-.966 2.8-1.783 4.126-1.783h14.18c1.253 0 2.76.957 3.294 2.09l2.822 5.997c.402.86 1.386 1.734 2.29 2.034l2.605.87c-.045.26-.07.53-.07.79 0 2.31 1.708 4.23 3.926 4.56v2.69c0 1.14-.763 2.06-1.703 2.06h-1.64c-.346-3.46-3.276-6.17-6.828-6.17-3.785 0-6.86 3.08-6.86 6.86 0 3.79 3.075 6.86 6.86 6.86 3.55 0 6.48-2.71 6.826-6.17h1.64C41.62 23.83 43 22.29 43 20.4v-3.32c0-2.436-1.88-5.045-4.192-5.815zM17.032 23.13c0 3.027-2.464 5.49-5.49 5.49s-5.49-2.463-5.49-5.49c0-3.028 2.462-5.49 5.49-5.49s5.49 2.462 5.49 5.49zm8.93 0c0-3.028 2.463-5.49 5.49-5.49s5.49 2.462 5.49 5.49c0 3.027-2.463 5.49-5.49 5.49s-5.49-2.463-5.49-5.49zm13.12-10.252c1.205.7 2.178 2.048 2.46 3.41-1.416-.345-2.47-1.624-2.47-3.144 0-.09.004-.177.01-.265z"/></svg>