<svg xmlns="http://www.w3.org/2000/svg" width="42" height="32"><path d="M10.212 18.265c0 5.87 4.84 10.648 10.788 10.648s10.788-4.777 10.788-10.648c0-5.872-4.84-10.65-10.788-10.65s-10.788 4.778-10.788 10.65zm1.718 0C11.93 13.327 16 9.31 21 9.31s9.07 4.018 9.07 8.954c0 4.937-4.07 8.954-9.07 8.954s-9.07-4.017-9.07-8.954zm2.34 0c0 3.663 3.018 6.644 6.73 6.644 3.71 0 6.73-2.987 6.73-6.65 0-3.664-3.02-6.645-6.73-6.645-3.712 0-6.73 2.98-6.73 6.644zm1.626 0c0-2.778 2.29-5.038 5.104-5.038s5.104 2.26 5.104 5.038c0 2.777-2.29 5.038-5.104 5.038s-5.104-2.26-5.104-5.038zM28.23 4.53L27.1 1.49C26.768.6 25.897 0 24.934 0h-7.868c-.964 0-1.834.6-2.166 1.492L13.77 4.53h-3.757V3.337c0-.96-.79-1.74-1.763-1.74H5.648c-.972 0-1.763.78-1.763 1.74v1.19H2.712C1.217 4.53 0 5.73 0 7.207v22.12C0 30.8 1.217 32 2.712 32h36.576C40.783 32 42 30.8 42 29.325V7.205c0-1.475-1.217-2.676-2.712-2.676H28.23zM17.066 1.783h7.868c.208 0 .397.13.47.323l.9 2.422h-10.61l.9-2.423c.074-.193.26-.323.47-.323zM5.648 3.293H8.25c.025 0 .045.02.045.045v1.19H5.603V3.34c0-.024.02-.044.045-.044zm-1.162 7.99v13.964H1.808V11.282h2.678zm35.706 18.04c0 .493-.406.893-.904.893H2.712c-.5 0-.904-.4-.904-.892v-2.292H5.39c.5 0 .904-.4.904-.892V10.39c0-.493-.405-.893-.904-.893H1.808V7.205c0-.49.406-.892.904-.892h36.575c.498 0 .904.4.904.892v2.292h-3.58c-.5 0-.9.4-.9.892v15.75c0 .49.405.89.904.89h3.583v2.29zm-2.678-4.076V11.282h2.678v13.965h-2.678z"/></svg>