<svg xmlns="http://www.w3.org/2000/svg" width="52" height="52"><path fill-rule="evenodd" fill="#FFF" d="M50.436 35.01L37.65 45.212c-.847.765-1.778 1.275-2.794 1.445-.34.085-.762.17-1.185.17l-11 1.7c-1.69.085-3.47.255-5.16.255H6.49v2.55H.565V29.23H6.49v1.78c2.33-1.493 7.106-3.996 10.162-1.696 1.354 1.02 3.048 1.53 4.826 1.53h3.302c2.456 0 4.742 1.19 6.096 3.146.763 1.105.932 2.04.508 2.805 2.117 0 4.403-.17 5.42-.765l7.28-4.505c3.727-1.955 5.25-1.955 6.775.085.76 1.02.59 2.55-.43 3.4zM4.798 48.782V30.93h-2.54v18.702h2.54v-.85zM49.588 32.8c-.676-1.02-1.015-1.446-4.57.34l-7.283 4.506c-1.948 1.02-5.673 1.105-9.653 1.02h-9.4c-2.54 0-2.54 1.275-2.54 1.7 0 .51-.34.85-.846.85-.508 0-.847-.34-.847-.85 0-2.125 1.61-3.4 4.23-3.4h8.89c1.1-.085 2.12-.255 2.37-.68.08-.17 0-.68-.34-1.19-1.1-1.616-2.88-2.466-4.83-2.466h-3.3c-2.2 0-4.24-.68-5.84-1.87-2.37-1.87-7.12.85-9.15 2.295v14.027H17.5c1.61 0 3.303-.085 4.91-.34l11.178-1.7c.34 0 .593 0 .93-.086.763-.085 1.44-.424 1.95-1.02l.084-.084L49.42 33.82c.338-.255.338-.765.17-1.02zm-15.155-4.08c-.424.424-.932.595-1.44.595-.593 0-1.185-.255-1.693-.68l-6.18-6.207c0 .255-.086.425-.255.596l-1.1 1.105 1.1 1.1c.17.17.254.34.254.59v.85c0 .25-.09.42-.26.59l-2.46 2.55c-.17.17-.43.25-.6.25-.26 0-.43-.09-.6-.26l-2.627-2.55c-.17-.17-.256-.34-.256-.596V13c-2.02-1.18-3.385-3.376-3.385-5.88.002-3.74 3.05-6.8 6.777-6.8 1.413 0 2.733.446 3.83 1.2.693-.23 1.393-.35 2.092-.35 3.73 0 6.78 3.06 6.78 6.8 0 1.027-.22 1.998-.66 2.913l7.6 7.63c.427.426.68.936.68 1.53 0 .596-.17 1.19-.59 1.616l-7.026 7.05zm-14.395-2.38l1.694 1.7 1.693-1.7v-.17l-1.44-1.446c-.338-.34-.338-.85 0-1.19l1.44-1.446v-1.36l-.17-.17c-.676-.68-1.184-1.615-1.27-2.55l-.676-4.08c-.43 0-.85-.086-1.28-.17v12.58zm6.767-19.49l-.007-.094c-.004-.06-.01-.118-.015-.176l-.014-.11-.03-.158c-.01-.04-.02-.076-.02-.114l-.03-.154-.03-.107-.04-.165-.03-.088-.06-.196-.02-.048c-.31-.88-.87-1.678-1.66-2.312-.04-.027-.08-.06-.11-.096-.85-.633-1.9-1.01-3.03-1.01-2.797 0-5.08 2.297-5.08 5.102 0 1.97 1.16 3.735 2.82 4.555l.14.03c.41.18.822.31 1.246.4.067.01.13.02.196.02l-.087-.6c-.1-.55-.02-1.14.2-1.64-.18-.61-.28-1.26-.28-1.93 0-1.02.253-2.04.677-2.89.17-.43.68-.6 1.1-.43.426.17.595.68.426 1.1-.34.68-.51 1.443-.51 2.21 0 .155.006.31.02.463.54-.26 1.147-.35 1.756-.296l2.29.34c.05-.245.097-.487.13-.745l.013-.1V7.6l.017-.22v-.03c.01-.08.01-.16.01-.242 0-.093 0-.184-.004-.275zm.854-3.977h-.6c.78 1.002 1.26 2.244 1.4 3.525v.064c.01.084.01.168.02.252V6.8c0 .108.01.216.01.324 0 .09-.01.177-.01.263-.018.335-.05.66-.11.98l-.06.372 2.454.34c.59.08 1.183.34 1.69.59.17-.51.255-1.11.255-1.7 0-2.81-2.286-5.1-5.08-5.1zm12.53 16.833l-8.05-8.076c-.43-.426-1.02-.765-1.61-.85l-3.38-.498c-.03-.002-.07-.006-.1-.012l-2.96-.426h-.26c-.11 0-.22.01-.32.03-.18.054-.34.145-.47.257.81 1.74 2.57 2.95 4.6 2.95.503 0 .842.34.842.85s-.34.85-.848.85c-1.85 0-3.536-.75-4.76-1.97l.014.1V13l.21 1.49.466 3.187c.085.596.424 1.19.847 1.616l8.044 8.077c.256.255.595.255.764.085l7.03-7.053c.09-.087.09-.17.09-.257 0-.17-.087-.34-.17-.425zm-6.86 5.016c-.17.17-.34.255-.6.255-.26 0-.43-.086-.6-.256-.34-.34-.34-.85 0-1.19l2.54-2.55c.34-.34.84-.34 1.18 0 .34.34.34.85 0 1.19l-2.54 2.55zm-2.54-2.55c-.17.17-.34.254-.6.254-.26 0-.43-.084-.6-.255-.34-.34-.34-.85 0-1.19l2.54-2.55c.34-.34.84-.34 1.18 0 .34.34.34.85 0 1.19l-2.54 2.55z"/></svg>