<svg xmlns="http://www.w3.org/2000/svg" width="40" height="60"><path fill-rule="evenodd" fill="#FFF" d="M.63 57.977v-38.09c0-.558.443-1.01.987-1.01h8.22V10.45c0-.56.44-1.013.985-1.013h2.96v-4.38c0-.56.44-1.01.985-1.01h4.273V1.01c0-.558.442-1.01.986-1.01.545 0 .987.452.987 1.01v3.035h4.273c.545 0 .986.452.986 1.01V9.44h1.89l.01.054h2.045V31.01s3.03.02 9.154.044l.05 26.923s.24 1.2.58 2.023H0c-.04 0 .63-2.023.63-2.023zm26.834 0h3.287v-9.113h-3.28v9.113zm-18.286 0h3.287v-9.23H9.178v9.23zM2.603 20.9v37.077h4.603v-10.24c0-.56.44-1.012.986-1.012h5.26c.544 0 .986.452.986 1.01v10.242h4.602V20.9H2.603zM24.3 6.066h-8.547v3.37H24.3v-3.37zm3.944 5.393H11.808v7.41h8.218c.545 0 .987.45.987 1.01v.336h2.958c.55 0 .99.452.99 1.01 0 .56-.44 1.012-.98 1.012h-2.96v3.37h2.958c.546 0 .987.452.987 1.01 0 .56-.44 1.01-.985 1.01h-2.96V31h7.23V11.46zm9.206 21.57H21.01v24.94h4.48V47.85c0-.56.44-1.01.985-1.01h5.26c.544 0 .985.45.985 1.01v10.123h4.726v-24.94zm-5.26 8.43v-4.58c0-.56.44-1.01.985-1.01.544 0 .986.45.986 1.01v4.58c0 .56-.44 1.01-.98 1.01-.542 0-.984-.455-.984-1.014zm-2.96 1.01c-.545 0-.987-.455-.986-1.014v-4.58c0-.558.44-1.01.986-1.01.545 0 .987.452.987 1.01v4.58c0 .56-.442 1.012-.986 1.012zm-3.945 0c-.545 0-.986-.455-.986-1.014v-4.58c0-.558.44-1.01.98-1.01.542 0 .983.452.983 1.01v4.58c0 .56-.44 1.012-.986 1.012zM23.97 16.85h-7.89c-.543 0-.985-.453-.985-1.012 0-.555.442-1.01.986-1.01h7.89c.55 0 .99.455.99 1.01 0 .56-.44 1.015-.98 1.015zm-9.203 25.62c-.545 0-.987-.452-.987-1.01v-1.35c0-.557.442-1.01.987-1.01.544 0 .986.453.986 1.01v1.35c0 .56-.442 1.01-.986 1.01zm0-6.74c-.545 0-.987-.454-.987-1.01v-1.35c0-.56.442-1.01.987-1.01.544 0 .986.45.986 1.01v1.35c0 .557-.442 1.01-.986 1.01zm0-6.743c-.545 0-.987-.452-.987-1.01v-1.35c0-.558.442-1.01.987-1.01.544 0 .986.452.986 1.01v1.35c0 .558-.442 1.01-.986 1.01zM10.822 42.47c-.545 0-.986-.452-.986-1.01v-1.35c0-.557.44-1.01.986-1.01.544 0 .986.453.986 1.01v1.35c0 .56-.442 1.01-.986 1.01zm0-6.74c-.545 0-.986-.454-.986-1.01v-1.35c0-.56.44-1.01.986-1.01.544 0 .986.45.986 1.01v1.35c0 .557-.442 1.01-.986 1.01zm0-6.743c-.545 0-.986-.452-.986-1.01v-1.35c0-.558.44-1.01.986-1.01.544 0 .986.452.986 1.01v1.35c0 .558-.442 1.01-.986 1.01zM6.877 42.472c-.545 0-.986-.453-.986-1.012v-1.348c0-.558.45-1.01.99-1.01.55 0 .99.452.99 1.01v1.348c0 .56-.44 1.012-.984 1.012zm0-6.742c-.545 0-.986-.453-.986-1.01v-1.35c0-.558.45-1.01.99-1.01.55 0 .99.452.99 1.01v1.35c0 .558-.44 1.01-.984 1.01zm0-6.742c-.545 0-.986-.452-.986-1.01v-1.35c0-.558.45-1.01.99-1.01.55 0 .99.452.99 1.01v1.35c0 .558-.44 1.01-.984 1.01z"/></svg>