<svg xmlns="http://www.w3.org/2000/svg" width="40" height="40"><path fill-rule="evenodd" fill="#FFF" d="M40 35.333C40 36.98 36.485 38 33.228 38c-1.48 0-2.962-.21-4.173-.58-.95 1.542-2.668 2.58-4.63 2.58-1.707 0-3.23-.783-4.223-2H7.025c-.187 0-.373-.007-.556-.02-2.35-.155-4.06-2.56-5.08-4.55-2.82-5.47-1.24-12.244 3.75-16.11l4.79-3.44c1-.777 2.28-1.213 3.59-1.213h5.26c1.47 0 2.74.725 3.55 1.334l4.87 3.27c1.52 1.15 2.72 2.56 3.63 4.2.84-.09 1.67-.13 2.36-.13 2.52 0 6.77.49 6.77 2.34v7.67c0 .12-.02.23-.05.34H40v3.67zm-6.772 1.333c3.196 0 5.25-.97 5.425-1.38l-.004-2.127c-1.47.63-3.81.84-5.43.84-1.25 0-2.45-.1-3.47-.29l.03.25c.01.06.02.12.02.18.02.17.02.34.02.51 0 .24-.02.47-.05.7l-.03.16c-.04.22-.09.45-.15.66 1.05.3 2.33.47 3.61.47zm-4.404-5.1l.044.058c.09.13.176.263.256.4l.013.02c1.125.396 2.6.622 4.09.622.268 0 .508-.012.756-.02 2.76-.136 4.51-.982 4.67-1.36l-.004-2.35c-.04.017-.08.032-.11.05-.12.054-.23.107-.35.158-.06.025-.13.05-.19.074-.12.045-.24.088-.36.13-.07.02-.14.043-.2.064-.14.044-.29.084-.43.122l-.17.045c-.21.05-.42.09-.63.13-.05.01-.1.01-.15.02-.17.03-.34.06-.52.08l-.24.03c-.15.02-.3.03-.45.05-.09.01-.17.01-.25.02l-.48.03-.22.01c-.23.01-.46.01-.69.01-.23 0-.46-.01-.7-.02l-.22-.01c-.16-.01-.32-.02-.48-.04l-.25-.03-.46-.06-.23-.03-.53-.09-.14-.03c-.21-.04-.42-.09-.63-.14l-.16-.05c-.15-.04-.3-.08-.44-.13l-.2-.06-.36-.13-.19-.08c-.12-.05-.23-.1-.35-.16-.04-.02-.08-.034-.11-.05l-.01 1.57.02.02c.08.067.16.137.24.21.04.04.09.08.14.13.09.09.17.18.25.27.03.03.06.06.08.096.1.11.19.23.27.34zm-4.4 7.1c1.64 0 3.054-.965 3.697-2.345.06-.12.11-.25.16-.38l.01-.01c.05-.12.08-.25.11-.37.01-.01.01-.02.01-.04.03-.11.05-.23.06-.36l.01-.06c.02-.14.02-.28.02-.42 0-.13 0-.27-.02-.41v-.03c-.01-.12-.03-.25-.06-.37v-.03c-.02-.12-.06-.24-.09-.36l-.01-.02c-.04-.12-.08-.23-.14-.35-.03-.07-.06-.13-.1-.2-.15-.29-.33-.56-.55-.81l-.03-.03c-.09-.1-.19-.2-.29-.3l-.08-.06c-.1-.09-.21-.17-.32-.25-.02-.02-.04-.04-.06-.05l-.03-.02c-.16-.11-.34-.21-.52-.29-.2-.09-.4-.17-.61-.23h-.01c-.2-.06-.41-.1-.62-.13h-.03c-.19-.03-.39-.03-.59-.02-.04 0-.08.01-.11.01-.2.02-.39.04-.59.08-.02.01-.04.01-.06.02-.16.04-.31.08-.46.14-.05.02-.09.03-.13.05-.17.07-.34.14-.5.23h-.01c-.7.39-1.27.99-1.64 1.7l-.02.05c-.08.16-.15.32-.21.49l-.02.05c-.05.17-.09.34-.12.51l-.03.18c-.01.06-.01.12-.02.18 0 .07-.01.15-.01.22v.16c.03 2.18 1.84 3.95 4.06 3.95zm2.01-20.32l-4.877-3.264C20.884 14.576 19.89 14 18.797 14H13.53c-1 0-1.985.336-2.772.944l-4.793 3.438c-4.47 3.46-5.895 9.54-3.37 14.445C3.822 35.203 5.23 36.56 6.56 36.65c.152.01.308.016.465.016H19.32c-.175-.532-.27-1.11-.297-1.686-.006-.105-.017-.208-.017-.314 0-.025.004-.05.004-.073 0-.058.007-.115.01-.172.007-.16.02-.31.042-.47.005-.03.005-.07.01-.11.005-.03.016-.06.02-.08.042-.23.092-.45.162-.67.016-.05.037-.1.055-.15.06-.17.12-.34.2-.5.03-.07.07-.15.1-.22.1-.18.2-.36.32-.53.04-.07.1-.13.15-.19.09-.12.19-.23.29-.35.06-.06.11-.13.18-.19.14-.14.29-.28.45-.41l.21-.16c.12-.09.25-.17.38-.25.07-.04.13-.08.2-.12.19-.1.39-.19.59-.27.07-.02.14-.05.22-.08.2-.07.41-.13.62-.18.02 0 .03-.01.05-.01h.01c.23-.05.47-.07.71-.09l.17-.01c.07 0 .14-.01.22-.01.14 0 .28.01.42.02.03 0 .05 0 .08.01.24.02.49.07.72.12l.09.02c.24.06.47.14.7.23V23.7c0-.127.02-.245.06-.358.01-.05.04-.1.07-.15.02-.05.05-.11.08-.16.04-.06.09-.12.15-.18.02-.03.05-.06.08-.09.07-.062.15-.13.23-.19l.04-.03c.57-.39 1.4-.66 2.26-.83-.79-1.3-1.8-2.42-3.01-3.34zm6.79 4.32c-1.09 0-2.002.08-2.765.193-.15.02-.29.04-.42.06-.12.02-.24.04-.35.06-.09.02-.19.03-.28.05-.18.04-.35.08-.5.13-.07.02-.13.04-.19.06-.09.03-.17.05-.24.08l-.18.07-.14.06c-.08.04-.15.08-.2.11-.04.02-.07.04-.1.07l-.03.02.04.04c.02.02.06.04.09.06.04.02.1.05.15.08.05.02.1.05.16.07.07.03.15.06.24.09.07.03.14.05.21.08.1.03.21.06.33.09.09.03.17.05.27.07.13.03.27.06.42.09.11.02.21.04.33.06.16.03.34.05.52.08.12.01.23.03.37.05.21.02.45.04.68.05l.35.03c.37.02.76.03 1.18.03.41 0 .81-.02 1.18-.04l.35-.03c.23-.02.47-.03.68-.06.13-.01.24-.03.37-.05.18-.02.36-.05.52-.08.12-.02.22-.04.33-.06.14-.03.29-.06.41-.09.1-.02.19-.05.28-.07.11-.03.23-.06.32-.1.08-.02.15-.05.22-.074.08-.03.17-.065.24-.096.06-.026.11-.05.16-.074.06-.03.11-.06.16-.084l.09-.068c.02-.018.03-.03.05-.04-.38-.34-2.17-.99-5.37-.99zm5.425 2.493l-.06.02c-.16.06-.33.13-.51.19h-.03c-.19.06-.39.11-.59.16l-.2.04-.44.09-.22.04c-.17.02-.33.05-.5.07l-.16.02c-.22.03-.44.05-.66.07l-.16.01c-.17.01-.33.03-.5.04l-.22.01c-.15.01-.3.01-.44.02h-.76c-.19 0-.38 0-.58-.01h-.19l-.45-.02-.21-.02c-.17-.01-.33-.03-.5-.04l-.16-.02c-.22-.02-.44-.05-.66-.08l-.16-.03c-.17-.02-.33-.05-.5-.08-.08-.01-.15-.02-.22-.04-.15-.03-.3-.06-.44-.09l-.2-.05c-.2-.05-.39-.1-.58-.16l-.03-.01c-.18-.06-.35-.12-.51-.19l-.06-.02v2.18c.18.37 2.23 1.33 5.41 1.33 3.19 0 5.25-.97 5.42-1.39l-.01-2.126zM22.46 12.78c-.8 0-1.547-.284-2.153-.782H12.23c-.373 0-.676-.3-.676-.666 0-.368.303-.667.677-.667h7.45V10h-8.12c-.37 0-.67-.298-.67-.666 0-.368.31-.667.68-.667h8.13c.13 0 .24.043.34.102.1-.06.21-.11.34-.11.38 0 .68.3.68.66v1.54c.77.74 2.1.74 2.86-.01.27-.26.7-.26.96 0s.27.68 0 .94c-.64.63-1.49.97-2.39.97zm-2.817-6.095C19.37 7.473 18.625 8 17.795 8h-5.03c-.83 0-1.572-.527-1.85-1.313-.194-.56-1.305-2.358-2.03-2.962-.562-.47-.825-1.195-.687-1.895.136-.69.625-1.232 1.306-1.455 2.034-.663 3.835-.44 5.214.644.247.19.58.19.826 0 1.378-1.09 3.18-1.31 5.213-.65.682.22 1.17.76 1.306 1.45.138.7-.126 1.42-.687 1.89-.64.53-1.466 2.21-1.73 2.96zm.684-5.045c-1.6-.522-2.925-.38-3.94.42-.74.583-1.778.584-2.52 0-.615-.485-1.345-.728-2.18-.728-.544 0-1.13.102-1.76.308-.293.095-.378.318-.403.442-.046.23.04.464.233.623.9.75 2.157 2.74 2.44 3.546.086.25.314.42.57.42h5.03c.252 0 .48-.16.57-.41.17-.49 1.097-2.68 2.13-3.54.19-.16.28-.39.234-.62-.02-.12-.11-.34-.4-.44z"/></svg>