<svg xmlns="http://www.w3.org/2000/svg" width="40" height="40"><path d="M40 27.602v-.007l-.003-.044v-.02l-.007-.03-.005-.02-.007-.03-.01-.03-.008-.022-.016-.04-.002-.003-6.854-15.08v-1.98h.044c.738 0 1.34-.6 1.34-1.34v-.1c0-.66-.475-1.216-1.127-1.32L22.03 5.69V4.53c.43-.48.69-1.115.69-1.81C22.72 1.22 21.5 0 20 0c-1.5 0-2.722 1.22-2.722 2.72 0 .695.262 1.33.692 1.81v1.097L6.648 7.514c-.648.108-1.12.664-1.12 1.32v.107c0 .74.602 1.34 1.34 1.34h.043v1.98L.06 27.34l-.003.006-.015.035-.008.03-.01.037-.007.03-.005.027c-.002.01-.005.023-.006.04l-.002.02L0 27.6v.033c0 .004 0 .012.002.02.04 2.664 3.344 4.745 7.557 4.745 4.21 0 7.51-2.08 7.55-4.746v-.116c0-.01-.01-.022-.01-.035l-.01-.03-.01-.03-.01-.03-.01-.02-.015-.04h-.003l-6.85-15.08v-1.98h9.764v14.08c-.41.23-.69.668-.69 1.17v9.548l-4.106 1.28c-.85.27-1.423 1.048-1.423 1.94v1.058c0 .36.29.65.648.65H27.6c.357 0 .647-.29.647-.65V38.3c0-.893-.572-1.672-1.424-1.938l-4.105-1.283v-9.55c0-.51-.278-.95-.69-1.17V10.28h9.763v1.976l-6.85 15.077v.006l-.01.03v.02l-.01.03-.004.03-.005.023c0 .013-.002.026-.004.04v.02c-.004.014-.006.03-.006.043v.056c.04 2.665 3.344 4.746 7.56 4.746 4.21 0 7.514-2.08 7.554-4.746v-.05zm-26.536-.648H1.654L7.56 13.962l5.904 12.992zM1.41 28.25h12.3c-.562 1.6-3.15 2.85-6.15 2.85-3 0-5.59-1.25-6.15-2.85zm20.014 6.65h-2.85v-9.374c0-.024.02-.043.043-.043h2.764c.03 0 .05.02.05.043V34.9zm-2.16-29.56c.234.064.48.1.735.1.25 0 .5-.036.73-.1v18.847h-1.47V5.34zm2.16-2.62c0 .784-.64 1.424-1.425 1.424-.79 0-1.43-.64-1.43-1.425s.64-1.43 1.42-1.43 1.42.64 1.42 1.42zm-14.6 6.22v-.107c0-.02.015-.04.036-.042l11.11-1.85v2.05H6.868c-.024 0-.043-.02-.043-.04zm20.13 29.76h-13.91v-.408c0-.323.207-.605.516-.7l4.465-1.396h3.95l4.464 1.395c.3.1.51.38.51.7v.41zM33.14 8.797c.02.003.035.02.035.042v.1c0 .02-.02.04-.043.04H22.03V7l11.11 1.793zm5.206 18.158h-11.81l5.905-12.992 5.91 12.992zM26.29 28.25h12.3c-.56 1.6-3.15 2.85-6.15 2.85-3 0-5.588-1.25-6.15-2.85z"/></svg>