<svg xmlns="http://www.w3.org/2000/svg" width="40" height="31"><path fill-rule="evenodd" fill="#FFF" d="M14.538 21.244c-.75 0-1.357.608-1.357 1.356v3.045c0 .748.61 1.357 1.36 1.357h9.926c.748 0 1.357-.61 1.357-1.357V22.6c0-.748-.61-1.356-1.357-1.356H14.54zm.387 4.013v-2.27h9.15v2.27h-9.15zM39.62 14.79L33.807 3.336c-.47-.926-1.408-1.5-2.45-1.5h-1.104V.77c0-.426-.347-.77-.775-.77H10.522c-.428 0-.775.344-.775.77v1.066H8.642c-1.04 0-1.98.575-2.45 1.5L.38 14.79l.012.005c-.25.41-.392.888-.392 1.4v12.1C0 29.785 1.218 31 2.715 31h34.57C38.782 31 40 29.786 40 28.294v-12.1c0-.51-.144-.99-.393-1.4l.013-.005zM31.358 3.552c.387 0 .737.214.912.558l4.76 9.38h-3.237v-2.886c0-.427-.347-.772-.775-.772h-.96V5.688c0-.427-.346-.773-.774-.773h-1.03V3.553h1.104zm.885 9.936h-4.09c-.703 0-1.342.412-1.63 1.05l-1.118 2.468c-.01.023-.034.038-.06.038h-10.69c-.026 0-.05-.015-.06-.038l-1.117-2.47c-.29-.636-.93-1.05-1.63-1.05h-4.09v-2.112h24.485v2.113zm-3.54-11.946v3.37H11.297v-3.37h17.406zM30.51 9.83H9.49V6.46h21.02v3.372zM8.64 3.552h1.105v1.363h-1.03c-.43 0-.776.346-.776.773v4.144h-.96c-.43 0-.777.345-.777.772v2.885H2.97l4.76-9.38c.175-.347.524-.56.912-.56zm-5.927 25.73c-.547 0-.993-.443-.993-.988v-12.1c0-.544.446-.988.993-.988h9.133c.025 0 .05.015.06.038l1.116 2.47c.29.637.928 1.05 1.63 1.05h10.692c.7 0 1.34-.413 1.63-1.05l1.117-2.47c.01-.023.038-.038.06-.038h9.136c.547 0 .992.444.992.99v12.098c0 .545-.445.99-.992.99H2.716z"/></svg>