<svg xmlns="http://www.w3.org/2000/svg" width="53" height="56"><path d="M52.15 20.56H36.984c-.468 0-.85-.376-.85-.84v-4.223c0-2.156 1.776-3.91 3.957-3.91h1.67v-.92L40.65 9.46c-.632-.687-.98-1.577-.98-2.506V3.97c0-2.19 1.802-3.97 4.016-3.97h1.76c2.216 0 4.018 1.78 4.018 3.97v2.984c0 .93-.348 1.82-.98 2.506l-1.107 1.206v.92h1.665c2.182 0 3.956 1.756 3.956 3.91v4.225c0 .47-.38.84-.848.84zm-.85-5.063c0-1.23-1.012-2.232-2.257-2.232h-2.515c-.47 0-.85-.376-.85-.84v-2.113c0-.283.143-.533.36-.685l1.19-1.295c.347-.378.538-.867.538-1.378V3.97c0-1.265-1.04-2.293-2.32-2.293h-1.76c-1.278 0-2.318 1.03-2.318 2.292v2.98c0 .51.19 1 .538 1.37l1.19 1.29c.216.15.358.4.358.68v2.11c0 .462-.38.84-.848.84H40.09c-1.244 0-2.257 1-2.257 2.23v3.39H51.3v-3.38zm-19.1-.642c-.166.164-.383.246-.6.246-.218 0-.435-.08-.6-.24-.332-.33-.332-.86 0-1.18l2.288-2.26H9.296v1.73c0 .47-.38.84-.85.84-.467 0-.847-.37-.847-.84v-2.56c0-.46.38-.84.84-.84h24.84l-2.29-2.27c-.33-.32-.33-.86 0-1.18.33-.33.87-.33 1.2 0l3.74 3.69c.16.16.25.37.25.597 0 .22-.09.435-.25.593l-3.74 3.693zM7.6 31.543V16.9c0-.463.38-.84.85-.84.468 0 .848.377.848.84v14.643c0 .464-.38.84-.85.84-.467 0-.847-.376-.847-.84zm5.732 7.866v2.98c0 .93-.348 1.82-.98 2.5l-1.107 1.21v.92h1.665c2.182 0 3.956 1.75 3.956 3.91v4.22c0 .46-.38.84-.848.84H.85c-.468 0-.85-.38-.85-.84v-4.22c0-2.16 1.776-3.91 3.957-3.91h1.666v-.92l-1.108-1.2c-.63-.69-.98-1.58-.98-2.51v-2.98c0-2.19 1.803-3.97 4.017-3.97h1.762c2.214 0 4.016 1.78 4.016 3.97zm-5.778-2.3c-1.278 0-2.318 1.02-2.318 2.29v2.98c0 .51.19 1 .538 1.38l1.19 1.29c.217.15.358.4.358.68v2.11c0 .46-.38.84-.848.84H3.957c-1.245 0-2.258 1-2.258 2.23v3.39h13.46v-3.38c0-1.23-1.02-2.237-2.26-2.237h-2.51c-.47 0-.85-.376-.85-.84v-2.11c0-.28.14-.53.36-.684l1.19-1.295c.34-.377.54-.866.54-1.377v-2.97c0-1.26-1.04-2.29-2.32-2.29H7.55zM27.934 32c.98 0 1.776.79 1.776 1.758 0 .97-.797 1.756-1.776 1.756-.98 0-1.777-.788-1.777-1.756 0-.97.797-1.755 1.777-1.755zm0 1.836c.043 0 .08-.036.08-.08 0-.043-.037-.08-.08-.08-.044 0-.08.037-.08.08 0 .044.036.08.08.08zm-3.35-8.72c-.47 0-.85-.374-.85-.837 0-1.14.457-2.2 1.287-2.99.83-.79 1.92-1.2 3.08-1.16 2.18.08 3.95 1.83 4.04 3.99.08 1.94-1.2 3.65-3.09 4.16-.15.04-.25.17-.25.33v2.11c0 .46-.38.84-.85.84-.46 0-.84-.38-.84-.84v-2.11c0-.91.62-1.71 1.51-1.95 1.13-.31 1.887-1.33 1.843-2.49-.05-1.28-1.106-2.33-2.403-2.38-.69-.03-1.34.22-1.838.69-.497.47-.77 1.1-.77 1.78 0 .46-.38.84-.85.84zm-7.99 20.52l3.737-3.694c.34-.328.87-.328 1.2 0 .34.327.34.858 0 1.187l-2.28 2.26h24.43V22.98c0-.464.38-.84.85-.84s.85.376.85.84v23.25c0 .464-.38.84-.85.84H19.25l2.29 2.26c.33.33.33.86 0 1.188-.167.17-.384.25-.602.25-.217 0-.434-.08-.6-.244L16.6 46.83c-.333-.33-.333-.86 0-1.183z"/></svg>