<svg xmlns="http://www.w3.org/2000/svg" width="40" height="40"><path fill-rule="evenodd" fill="#FFF" d="M39.167 38.332h-.834v.834c0 .46-.373.833-.833.833-.46 0-.833-.375-.833-.835v-.834H3.333v.835c0 .46-.373.833-.833.833-.46 0-.833-.374-.833-.834v-.833H.833c-.46 0-.833-.373-.833-.833V4.165C0 1.87 1.87 0 4.167 0h31.666C38.13 0 40 1.87 40 4.166V37.5c0 .46-.373.832-.833.832zM13.333 1.666H4.167c-1.38 0-2.5 1.122-2.5 2.5v32.5h11.666v-35zm13.334 0H15v35h11.667v-35zm11.666 2.5c0-1.378-1.12-2.5-2.5-2.5h-7.5v10h10v-7.5zm0 9.167h-10v10h10v-10zm0 11.666h-10v5h10v-5zm0 6.665h-10v5h10v-5zM32.5 33.333h1.667c.46 0 .833.373.833.833 0 .46-.373.834-.833.834H32.5c-.46 0-.833-.374-.833-.834 0-.46.373-.833.833-.833zm0-6.667h1.667c.46 0 .833.374.833.833 0 .46-.373.832-.833.832H32.5c-.46 0-.833-.374-.833-.834 0-.46.373-.834.833-.834zm-15-10c.46 0 .833.374.833.833v1.665c0 .46-.373.833-.833.833-.46 0-.833-.374-.833-.834V17.5c0-.46.373-.834.833-.834zm-6.667 0c.46 0 .834.374.834.833v1.665c0 .46-.374.833-.834.833-.46 0-.833-.374-.833-.834V17.5c0-.46.373-.834.833-.834z"/></svg>