<svg xmlns="http://www.w3.org/2000/svg" width="52" height="54"><path d="M28.447 14.71V7.548c1.03-.35 1.743-1.31 1.743-2.492V3.3c0-1.493-1.133-2.634-2.615-2.634h-24.4C1.695.666.56 1.806.56 3.3v1.755c0 1.182.712 2.143 1.744 2.492v44.908c0 .527.348.878.87.878H48.49c.523 0 .87-.35.87-.878V19.977c.96 0 1.744-.79 1.744-1.755v-1.756c0-.965-.784-1.755-1.743-1.755H28.45zm1.743 8.778v1.756h-1.743v-1.756h1.743zm0 7.022v1.756h-1.743V30.51h1.743zm0 7.023v1.755h-1.743v-1.755h1.743zM3.175 2.423h24.4c.523 0 .872.35.872.876v1.753c0 .527-.35.878-.872.878h-24.4c-.523 0-.87-.35-.87-.877V3.3c0-.527.347-.878.87-.878zm23.53 5.265v43.888h-4.358V41.92c0-.524-.35-.875-.872-.875h-12.2c-.523 0-.87.35-.87.877v9.657h-4.36V7.685h22.658zM14.505 42.8v3.51h-.874c-.52 0-.87.352-.87.878 0 .527.35.878.87.878h.874v3.51h-4.357V42.8h4.357zm1.74 5.266h.87c.525 0 .873-.35.873-.878 0-.526-.35-.877-.872-.877h-.87V42.8h4.356v8.777h-4.357v-3.51zm12.2 3.51v-10.53h2.615c.524 0 .873-.35.873-.88v-3.51c0-.527-.35-.88-.872-.88h-2.61v-1.753h2.614c.524 0 .873-.35.873-.878v-3.51c0-.528-.35-.88-.872-.88H28.45V27h2.614c.524 0 .873-.352.873-.878v-3.51c0-.528-.35-.88-.872-.88h-2.613v-1.755h19.17v31.6h-19.17zM48.49 18.223H28.447v-1.756H49.36v1.756h-.87zM10.147 15.59c.522 0 .87-.35.87-.878V11.2c0-.528-.348-.878-.87-.878H6.66c-.522 0-.87.35-.87.877v3.51c0 .525.348.876.87.876h3.487zm-.872-3.51v1.754H7.532v-1.756h1.743zm7.843 3.51c.523 0 .87-.35.87-.878V11.2c0-.528-.347-.878-.87-.878h-3.486c-.523 0-.87.35-.87.877v3.51c0 .525.347.876.87.876h3.486zm-.87-3.51v1.754h-1.744v-1.756h1.743zm7.842 3.51c.522 0 .87-.35.87-.878V11.2c0-.528-.348-.878-.87-.878h-3.486c-.523 0-.872.35-.872.877v3.51c0 .525.35.876.872.876h3.486zm-.872-3.51v1.754h-1.743v-1.756h1.743zm-13.07 10.53c.52 0 .87-.35.87-.877v-3.51c0-.528-.35-.88-.87-.88H6.66c-.522 0-.87.352-.87.88v3.51c0 .526.348.878.87.878h3.487zm-.873-3.51v1.755H7.532V19.1h1.743zm7.843 3.51c.523 0 .87-.35.87-.877v-3.51c0-.528-.347-.88-.87-.88h-3.486c-.523 0-.87.352-.87.88v3.51c0 .526.347.878.87.878h3.486zm-.87-3.51v1.755h-1.744V19.1h1.743zm7.842 3.51c.522 0 .87-.35.87-.877v-3.51c0-.528-.348-.88-.87-.88h-3.486c-.523 0-.872.352-.872.88v3.51c0 .526.35.878.872.878h3.486zm-.872-3.51v1.755h-1.743V19.1h1.743zm-13.07 10.533c.52 0 .87-.35.87-.878v-3.51c0-.528-.35-.88-.87-.88H6.66c-.522 0-.87.352-.87.88v3.51c0 .527.348.878.87.878h3.487zm-.873-3.51v1.754H7.532v-1.755h1.743zm7.843 3.51c.523 0 .87-.35.87-.878v-3.51c0-.528-.347-.88-.87-.88h-3.486c-.523 0-.87.352-.87.88v3.51c0 .527.347.878.87.878h3.486zm-.87-3.51v1.754h-1.744v-1.755h1.743zm7.842 3.51c.522 0 .87-.35.87-.878v-3.51c0-.528-.348-.88-.87-.88h-3.486c-.523 0-.872.352-.872.88v3.51c0 .527.35.878.872.878h3.486zm-.872-3.51v1.754h-1.743v-1.755h1.743zm-13.07 10.532c.52 0 .87-.35.87-.878v-3.51c0-.527-.35-.88-.87-.88H6.66c-.522 0-.87.353-.87.88v3.51c0 .527.348.878.87.878h3.487zm-.873-3.51V34.9H7.532v-1.756h1.743zm7.843 3.51c.523 0 .87-.35.87-.878v-3.51c0-.527-.347-.88-.87-.88h-3.486c-.523 0-.87.353-.87.88v3.51c0 .527.347.878.87.878h3.486zm-.87-3.51V34.9h-1.744v-1.756h1.743zm7.842 3.51c.522 0 .87-.35.87-.878v-3.51c0-.527-.348-.88-.87-.88h-3.486c-.523 0-.872.353-.872.88v3.51c0 .527.35.878.872.878h3.486zm-.872-3.51V34.9h-1.743v-1.756h1.743zM45.004 27c.523 0 .87-.352.87-.878v-3.51c0-.528-.347-.88-.87-.88h-3.486c-.523 0-.87.352-.87.88v3.51c0 .526.347.878.87.878h3.486zm-.87-3.512v1.756H42.39v-1.756h1.743zm.87 10.534c.523 0 .87-.35.87-.878v-3.51c0-.528-.347-.88-.87-.88h-3.486c-.523 0-.87.352-.87.88v3.51c0 .527.347.878.87.878h3.486zm-.87-3.512v1.756H42.39V30.51h1.743zm.87 10.534c.523 0 .87-.35.87-.878v-3.51c0-.528-.347-.88-.87-.88h-3.486c-.523 0-.87.352-.87.88v3.51c0 .527.347.878.87.878h3.486zm-.87-3.51v1.754H42.39v-1.755h1.743zM38.03 27c.523 0 .872-.352.872-.878v-3.51c0-.528-.35-.88-.872-.88h-3.485c-.523 0-.872.352-.872.88v3.51c0 .526.35.878.872.878h3.485zm-.87-3.512v1.756h-1.744v-1.756h1.743zm.87 10.534c.523 0 .872-.35.872-.878v-3.51c0-.528-.35-.88-.872-.88h-3.485c-.523 0-.872.352-.872.88v3.51c0 .527.35.878.872.878h3.485zm-.87-3.512v1.756h-1.744V30.51h1.743zm.87 10.534c.523 0 .872-.35.872-.878v-3.51c0-.528-.35-.88-.872-.88h-3.485c-.523 0-.872.352-.872.88v3.51c0 .527.35.878.872.878h3.485zm-.87-3.51v1.754h-1.744v-1.755h1.743z"/></svg>