<svg xmlns="http://www.w3.org/2000/svg" width="212" height="121"><path d="M206.98 120.985h-10.707c.018-.07.07-.124.09-.195 1.37-4.23.997-8.618-.963-12.402.285.09.588.16.89.16 1.48 0 2.673-1.19 2.673-2.665v-5.33c0-1.475-1.193-2.665-2.672-2.665-1.48 0-2.67 1.19-2.67 2.665v5.1c-1.46-1.813-3.29-3.252-5.34-4.265v-.835c0-1.475-1.19-2.665-2.67-2.665-1.21 0-2.22.817-2.54 1.92-.21-.02-.43-.073-.64-.09-1.37-1.528-3.01-2.772-4.82-3.678V84.563c0-1.475-1.194-2.666-2.673-2.666-1.47 0-2.67 1.19-2.67 2.666v9.878l-.5-.05c-2.62-2.93-6.25-4.83-10.19-5.272V41.92c0-1.473 1.2-2.664 2.67-2.664H207c1.48 0 2.677 1.2 2.677 2.67v76.4c0 1.48-1.193 2.67-2.672 2.67zm-29.4-66.627c0-1.474-1.192-2.665-2.67-2.665-1.47 0-2.67 1.19-2.67 2.665v3.554c0 1.474 1.2 2.665 2.68 2.665 1.48 0 2.675-1.19 2.675-2.665v-3.554zm0 14.214c0-1.474-1.192-2.665-2.67-2.665-1.47 0-2.67 1.19-2.67 2.665v5.33c0 1.475 1.2 2.665 2.68 2.665 1.48 0 2.675-1.19 2.675-2.665v-5.33zm10.69-14.214c0-1.474-1.19-2.665-2.67-2.665s-2.673 1.19-2.673 2.665v3.554c0 1.474 1.19 2.665 2.67 2.665s2.67-1.19 2.67-2.665v-3.554zm0 14.214c0-1.474-1.19-2.665-2.67-2.665s-2.673 1.19-2.673 2.665v5.33c0 1.475 1.19 2.665 2.67 2.665s2.67-1.19 2.67-2.665v-5.33zm0 15.99c0-1.474-1.19-2.665-2.67-2.665s-2.673 1.19-2.673 2.666v7.568c0 1.48 1.19 2.67 2.67 2.67s2.67-1.19 2.67-2.662V84.57zm10.693-30.204c0-1.474-1.194-2.665-2.672-2.665-1.48 0-2.67 1.19-2.67 2.665v3.554c0 1.474 1.2 2.665 2.68 2.665 1.48 0 2.68-1.19 2.68-2.665zm0 14.214c0-1.474-1.194-2.665-2.672-2.665-1.48 0-2.67 1.19-2.67 2.665v5.33c0 1.475 1.2 2.665 2.68 2.665 1.48 0 2.68-1.19 2.68-2.665zm0 15.99c0-1.474-1.194-2.665-2.672-2.665-1.48 0-2.67 1.19-2.67 2.666v5.33c0 1.474 1.2 2.665 2.68 2.665 1.48 0 2.68-1.19 2.68-2.665v-5.33zm-29.92 15.198c4.32-.59 8.603 1.643 10.69 5.33 3.845-.526 7.777 1.166 10.064 4.3 2.04 2.803 2.58 6.357 1.47 9.752-.36 1.107-1.38 1.82-2.48 1.843-.29.006-58 0-58 0-1.13 0-2.18-.717-2.54-1.843-1.107-3.395-.57-6.95 1.473-9.75 2.286-3.136 6.22-4.828 10.062-4.302 2.087-3.687 6.366-5.92 10.69-5.33 1.862-3.288 5.384-5.426 9.28-5.426 3.895 0 7.417 2.13 9.28 5.42zm-31.927-.042c-3.474.302-6.806 1.723-9.425 4.033V54.36c0-1.474 1.2-2.665 2.68-2.665h25.83v37.72c-3.24.746-6.18 2.487-8.41 4.975-4.08.337-7.93 2.274-10.67 5.33zm11.066-42.695h-12.474c-1.478 0-2.672 1.19-2.672 2.666 0 1.47 1.194 2.66 2.673 2.66h12.48c1.48 0 2.67-1.2 2.67-2.67 0-1.48-1.2-2.67-2.68-2.67zm0 10.66h-12.474c-1.478 0-2.672 1.19-2.672 2.666 0 1.47 1.194 2.66 2.673 2.66h12.48c1.48 0 2.67-1.19 2.67-2.67s-1.2-2.67-2.68-2.67zm2.672 13.326c0-1.48-1.193-2.67-2.672-2.67h-12.474c-1.478 0-2.672 1.19-2.672 2.66 0 1.47 1.194 2.66 2.673 2.66h12.48c1.48 0 2.67-1.19 2.67-2.67zm-41.85 8.7c-4.035-4.5-9.695-7.35-15.695-7.84-3.27-3.66-7.59-6.22-12.36-7.32V19.08h37.99c2.17 0 3.93 1.75 3.93 3.92v72.636c-3.85-3.398-8.75-5.488-13.86-5.93zm2.07-62.79H92.732c-2.175 0-3.93 1.75-3.93 3.92 0 2.163 1.755 3.92 3.93 3.92h18.342c2.175 0 3.93-1.75 3.93-3.92s-1.755-3.92-3.93-3.92zm0 15.673H92.732c-2.175 0-3.93 1.75-3.93 3.92 0 2.166 1.755 3.917 3.93 3.917h18.342c2.175 0 3.93-1.75 3.93-3.92 0-2.167-1.755-3.917-3.93-3.917zm0 15.675H92.732c-2.175 0-3.93 1.76-3.93 3.92 0 2.17 1.755 3.92 3.93 3.92h18.342c2.175 0 3.93-1.75 3.93-3.92 0-2.16-1.755-3.92-3.93-3.92zm-6.006 39.34c5.65-.77 11.44 1.72 14.8 6.33 3.007 4.12 3.798 9.35 2.17 14.34-.532 1.66-2.08 2.71-3.733 2.71 0 0-84.86.01-85.29 0-1.627-.03-3.12-1.08-3.65-2.71-1.622-4.99-.83-10.22 2.173-14.34 3.36-4.61 9.145-7.1 14.797-6.32 3.07-5.42 9.37-8.7 15.722-7.84 2.73-4.84 7.91-7.98 13.64-7.98s10.91 3.15 13.648 7.98c6.36-.87 12.65 2.42 15.72 7.84zM58.095 81.87c-.235.027-.497.053-.733.08V67.42c0-2.17-1.755-3.92-3.93-3.92-2.175 0-3.93 1.75-3.93 3.92V84.3c-2.673 1.33-5.084 3.16-7.1 5.407-.316.027-.63.105-.944.13-.473-1.62-1.967-2.82-3.748-2.82-2.175 0-3.93 1.75-3.93 3.92v1.23c-3.014 1.49-5.713 3.604-7.862 6.27v-7.5c0-2.168-1.755-3.92-3.93-3.92-2.175 0-3.93 1.75-3.93 3.92v7.84c0 2.17 1.755 3.92 3.93 3.92.445 0 .89-.105 1.31-.235-2.882 5.57-3.433 12.02-1.415 18.24.027.11.106.19.132.29H6.263c-2.176 0-3.93-1.75-3.93-3.92V4.715c0-2.17 1.755-3.92 3.93-3.92h62.885c2.174 0 3.93 1.75 3.93 3.92V74.11c-5.792.653-11.137 3.45-14.99 7.76zM25.915 23c0-2.17-1.756-3.92-3.93-3.92-2.176 0-3.93 1.75-3.93 3.92v5.226c0 2.17 1.754 3.92 3.93 3.92 2.174 0 3.93-1.75 3.93-3.92zm0 20.903c0-2.168-1.756-3.918-3.93-3.918-2.176 0-3.93 1.75-3.93 3.92v7.836c0 2.17 1.754 3.92 3.93 3.92 2.174 0 3.93-1.75 3.93-3.92zm0 23.516c0-2.17-1.756-3.92-3.93-3.92-2.176 0-3.93 1.75-3.93 3.92v7.83c0 2.17 1.754 3.92 3.93 3.92 2.174 0 3.93-1.75 3.93-3.92zM41.638 23c0-2.17-1.755-3.92-3.93-3.92-2.175 0-3.93 1.75-3.93 3.92v5.22c0 2.17 1.755 3.92 3.93 3.92 2.175 0 3.93-1.75 3.93-3.92zm0 20.9c0-2.17-1.755-3.92-3.93-3.92-2.175 0-3.93 1.75-3.93 3.92v7.83c0 2.17 1.755 3.92 3.93 3.92 2.175 0 3.93-1.75 3.93-3.92zm0 23.51c0-2.17-1.755-3.92-3.93-3.92-2.175 0-3.93 1.75-3.93 3.92v11.13c0 2.17 1.755 3.92 3.93 3.92 2.175 0 3.93-1.75 3.93-3.92V67.42zm15.72-44.43c0-2.17-1.756-3.92-3.93-3.92-2.175 0-3.93 1.75-3.93 3.92v5.22c0 2.17 1.755 3.92 3.93 3.92 2.174 0 3.93-1.75 3.93-3.92zm0 20.9c0-2.17-1.756-3.92-3.93-3.92-2.175 0-3.93 1.75-3.93 3.92v7.836c0 2.17 1.755 3.92 3.93 3.92 2.174 0 3.93-1.75 3.93-3.92z" fill="#f5f5f5" fill-rule="evenodd"/></svg>