<svg xmlns="http://www.w3.org/2000/svg" width="210" height="60"><path fill-rule="evenodd" fill="#A48ABF" d="M25.69 29.246l5.333-3.407c2.38 1.58 4.76 3.15 7.138 4.73.09.06.19.12.28.18v1.36h-1.27v6.44H24.63V32.1h-1.27v-1.38c.79-.495 1.56-.996 2.35-1.493"/><path fill-rule="evenodd" fill="#6CA4D9" d="M29.61 37.008c1.78-1.135 3.557-2.27 5.335-3.406 2.38 1.58 4.758 3.16 7.138 4.738.09.06.182.118.27.182-.002.455.002.91 0 1.364H41.08v6.447c-1.41.003-2.82 0-4.232 0-2.77 0-5.54.002-8.31 0 .002-2.148 0-4.297.002-6.446-.424-.002-.85 0-1.273-.002.002-.46-.002-.922.002-1.383.78-.496 1.56-.996 2.34-1.494"/><path fill-rule="evenodd" fill="#94D3E0" d="M32.448 41.817l5.334-3.406 7.138 4.74c.09.06.182.12.27.18-3.607 3.9-8.402 6.69-13.813 7.81V44.7h-1.272c0-.463-.003-.924.002-1.386.782-.494 1.56-.994 2.34-1.492m-21.845-14.9l5.334-3.404 7.138 4.738c.09.06.183.118.27.182 0 .455.002.91 0 1.364h-1.27c-.002 2.146-.003 4.295 0 6.444-1.412.003-2.823 0-4.234 0-2.77 0-5.54.002-8.31 0 .002-2.148 0-4.297 0-6.446-.423-.003-.847 0-1.27 0 0-.463-.004-.925 0-1.386.783-.496 1.56-.996 2.342-1.494"/><path fill-rule="evenodd" fill="#A68ABF" d="M22.872.186l1.606 1.067c.09.06.183.118.27.182 0 .455.002.91 0 1.364-.424-.01-.847 0-1.27 0-.002 2.14-.002 4.29 0 6.44H10.934V4.78C14.384 2.34 18.46.717 22.874.187"/><path fill-rule="evenodd" fill="#F59C47" d="M33.956 1.22l.05.033c.09.06.183.118.272.182-.003.455 0 .91-.002 1.364-.423-.01-.847 0-1.27 0 0 2.14-.002 4.29 0 6.44H20.462c.002-2.15 0-4.3.002-6.45H19.19c.01-.46 0-.93.01-1.39l1.3-.82c1.78-.38 3.63-.59 5.528-.59 2.764 0 5.428.43 7.928 1.22"/><path fill-rule="evenodd" fill="#A688BE" d="M1.31 33.964l4.09-2.612 7.14 4.74c.09.06.18.117.27.18-.003.455 0 .91-.002 1.365h-1.27c0 2.15-.002 4.298 0 6.447-1.315.002-2.63 0-3.946 0-2.823-2.81-4.997-6.264-6.282-10.12"/><path fill-rule="evenodd" fill="#F59C47" d="M40.37 34.76c1.777-1.137 3.555-2.272 5.333-3.408l4.835 3.21c-1.305 3.615-3.4 6.857-6.075 9.523h-5.166c.002-2.15 0-4.3 0-6.448h-1.27c0-.462-.004-.924 0-1.385.783-.495 1.56-.996 2.342-1.493"/><path fill-rule="evenodd" fill="#6CA4D9" d="M19.588 43.03l5.334-3.408 7.138 4.738c.09.06.183.12.272.183-.003.454 0 .91-.002 1.363h-1.27c0 1.764-.002 3.53 0 5.292-1.63.317-3.31.485-5.032.485-2.612 0-5.132-.384-7.51-1.094V45.9c-.425-.002-.85 0-1.273 0 .002-.462-.003-.924.002-1.385.782-.496 1.56-.996 2.342-1.493"/><path fill-rule="evenodd" fill="#EB5859" d="M8.22 43.584c1.778-1.136 3.556-2.27 5.334-3.407l7.138 4.738c.09.06.183.12.27.182 0 .455.002.91 0 1.364-.424 0-.848.01-1.27 0l-.002 4.45c-4.685-1.16-8.866-3.58-12.158-6.88l.688-.44z"/><path fill-rule="evenodd" fill="#A48ABF" d="M18.63 15.552c1.778-1.136 3.556-2.27 5.334-3.407l7.138 4.74c.09.06.182.117.27.18-.002.455.002.91 0 1.365H30.1c-.002 2.15-.003 4.298 0 6.447-1.412.002-2.824 0-4.235 0-2.77 0-5.54.002-8.31 0 .002-2.15 0-4.298.002-6.447-.425-.002-.85 0-1.274 0 .002-.462-.002-.924.002-1.385.782-.495 1.56-.996 2.342-1.493"/><path fill-rule="evenodd" fill="#EB5859" d="M41.695 14.773c1.78-1.136 3.557-2.27 5.334-3.406l1 .668C50.29 15.57 51.7 19.682 52 24.1H40.623c.002-2.15 0-4.3.002-6.448-.425-.002-.85 0-1.273 0 .002-.463-.003-.924.002-1.385.782-.496 1.56-.996 2.342-1.494"/><path fill-rule="evenodd" fill="#4BB166" d="M29.67 2.992L32.92.915c3.516.956 6.734 2.626 9.49 4.842l-.002.113h-1.27c0 2.15-.002 4.298 0 6.447-1.41.003-2.823 0-4.233 0-2.77 0-5.54.002-8.31 0V5.872h-1.27c0-.462-.004-.924 0-1.385.782-.495 1.56-.996 2.342-1.493"/><path fill-rule="evenodd" fill="#EB5859" d="M11.053 4.7l6.105 4.05c.09.062.182.12.27.183-.002.455.002.91 0 1.364h-1.272v6.447c-1.41.003-2.822 0-4.233 0-2.77 0-5.54.002-8.31 0 .002-1.35 0-2.702 0-4.053C5.5 9.54 8.04 6.81 11.053 4.7"/><path fill-rule="evenodd" fill="#A48ABF" d="M36.62 7.42l4.324-2.76c2.855 1.984 5.29 4.525 7.148 7.462v4.622c-1.41.003-2.822 0-4.233 0-2.77 0-5.54.002-8.31 0V10.3c-.43-.002-.85 0-1.28-.002 0-.46-.01-.923 0-1.383.78-.496 1.56-.996 2.34-1.494"/><path fill-rule="evenodd" fill="#EB5859" d="M27.345 13.072c1.778-1.136 3.556-2.27 5.334-3.407l7.13 4.74c.09.06.18.117.27.18v1.365h-1.27c0 2.148-.01 4.298 0 6.447-1.41.003-2.83 0-4.24 0-2.77 0-5.54.002-8.31 0V15.95c-.43-.002-.85 0-1.27 0 0-.462-.01-.924 0-1.385.78-.495 1.56-.996 2.34-1.493"/><path fill-rule="evenodd" fill="#94D3E0" d="M18.397 7.073c1.778-1.136 3.556-2.27 5.334-3.407l7.14 4.74c.09.06.19.117.27.18V9.95h-1.27v6.45c-1.41.003-2.82 0-4.23 0-2.77 0-5.54.002-8.31 0V9.953c-.42 0-.84.002-1.27 0V8.57c.79-.496 1.56-.997 2.34-1.494"/><path fill-rule="evenodd" fill="#F59C47" d="M33.484 18.262l5.334-3.406 7.138 4.738c.09.06.183.12.27.183 0 .454.002.91 0 1.364h-1.27c-.002 2.15-.003 4.3 0 6.45-1.412.01-2.824 0-4.234 0h-8.31v-6.45c-.423 0-.847.01-1.27 0 0-.46-.004-.92 0-1.38.783-.49 1.56-.99 2.342-1.49"/><path fill-rule="evenodd" fill="#6CA4D9" d="M22.125 21.918l5.334-3.406c2.37 1.58 4.75 3.158 7.13 4.738.09.06.18.118.27.182v1.364h-1.27v6.447c-1.41.003-2.83 0-4.24 0-2.77 0-5.54.002-8.31 0v-6.446c-.43-.002-.85 0-1.27 0 0-.462-.01-.924 0-1.385.78-.496 1.56-.996 2.34-1.494m21.17 3.324l5.33-3.407 3.37 2.238c.04.584.06 1.172.06 1.766 0 3.06-.54 6-1.53 8.72H42.2v-6.44c-.423-.01-.847 0-1.27 0 0-.47-.003-.93 0-1.39.784-.5 1.56-1 2.34-1.5"/><path fill-rule="evenodd" fill="#4BB166" d="M34.49 26.712c1.78-1.135 3.557-2.27 5.335-3.406l7.138 4.738c.09.06.183.12.27.182 0 .455.002.91 0 1.365h-1.27c-.002 2.15-.003 4.3 0 6.45-1.412.01-2.823 0-4.234 0h-8.31v-6.45h-1.28c0-.46-.01-.92 0-1.38.78-.49 1.56-.99 2.34-1.49"/><path fill-rule="evenodd" fill="#EB5859" d="M18.63 33.288c1.778-1.136 3.556-2.27 5.334-3.407l7.138 4.74c.09.06.182.12.27.19-.002.46.002.91 0 1.37H30.1c-.002 2.15-.003 4.3 0 6.45-1.412.01-2.824 0-4.235 0h-8.31c.002-2.15 0-4.29.002-6.44h-1.274c.002-.46-.002-.92.002-1.38.782-.49 1.56-.99 2.342-1.49"/><path fill-rule="evenodd" fill="#50B267" d="M11.086 37.217l5.334-3.406 7.138 4.74.272.18c-.003.46 0 .91-.002 1.37h-1.27c-.002 2.15-.002 4.3 0 6.45-1.412.01-2.823 0-4.234 0h-7.88c-.144-.1-.287-.21-.43-.32V40.1h-1.27c0-.463-.004-.925 0-1.386.783-.494 1.562-.995 2.342-1.492"/><path fill-rule="evenodd" fill="#F59C47" d="M.03 24.536l4.5-2.874 7.137 4.74c.09.06.183.117.27.18 0 .455.002.91 0 1.365h-1.27c-.002 2.15-.002 4.298 0 6.447-1.412.002-2.823 0-4.234 0H1.458C.512 31.718-.004 28.84-.004 25.84c0-.437.01-.872.033-1.303"/><path fill-rule="evenodd" fill="#4BB166" d="M9.944 17.686c1.778-1.136 3.556-2.27 5.334-3.407l7.138 4.73c.09.06.182.12.27.18 0 .45.002.91 0 1.36h-1.27c-.002 2.15-.003 4.3 0 6.44H8.872v-6.44c-.423-.01-.848 0-1.27 0 0-.47-.004-.93 0-1.39l2.342-1.5"/><path fill-rule="evenodd" fill="#6CA4D9" d="M3.453 12.963l1.686-1.077c2.37 1.58 4.75 3.16 7.13 4.738.09.06.18.118.27.182v1.364h-1.27v6.447c-1.41.003-2.83 0-4.24 0-2.34 0-4.68.002-7.02 0 .2-4.23 1.42-8.194 3.42-11.654"/><path fill-rule="evenodd" fill="#6DA3D8" d="M13.284 7.073c1.78-1.136 3.556-2.27 5.334-3.407l7.138 4.74c.09.06.183.117.272.18-.003.455 0 .91-.002 1.365h-1.27c0 2.15-.002 4.3 0 6.45-1.412.01-2.823 0-4.234 0h-8.31c.002-2.15 0-4.3.002-6.44H10.94c.01-.46 0-.92.01-1.38.78-.49 1.56-.99 2.34-1.49"/><path fill-rule="evenodd" fill="#A688BE" d="M24.643 44.622c1.778-1.136 3.556-2.27 5.334-3.407l7.138 4.74c.09.06.183.117.27.18 0 .455.002.91 0 1.365h-1.27l-.002 2.17c-3.102 1.296-6.51 2.013-10.086 2.013-.828 0-1.647-.04-2.455-.116V47.5H22.3c0-.462-.003-.924.002-1.385.782-.496 1.56-.996 2.34-1.493"/><path fill-rule="evenodd" fill="#FFF" d="M15.967 8.108h-.09L7.855 40.23h7.432l2.63-14.71h.09l7.432 14.71h.09l8.15-14.756h.09l2.68 14.756h7.52L35.95 8.108h-.09l-10.106 18.76-9.79-18.76z"/><path fill-rule="evenodd" fill="#444545" d="M203.528 27.63c-.436-.36-1.022-.542-1.757-.542-.92 0-1.68.38-2.25 1.14-.57.758-.86 1.908-.86 3.448 0 1.372.29 2.414.86 3.126.57.713 1.3 1.07 2.18 1.07.74 0 1.35-.216 1.86-.647.5-.43.88-1.09 1.13-1.983l5.34.693c-.29 1.27-.78 2.37-1.45 3.297-.67.93-1.53 1.65-2.57 2.165-1.04.514-2.37.77-3.98.77-1.55 0-2.84-.164-3.88-.494-1.03-.33-1.92-.865-2.67-1.604-.74-.74-1.32-1.61-1.75-2.61-.42-1-.63-2.32-.63-3.97 0-1.72.26-3.15.78-4.3.38-.84.89-1.59 1.54-2.26.66-.67 1.33-1.16 2.02-1.49 1.1-.52 2.5-.77 4.21-.77 2.39 0 4.22.48 5.47 1.46s2.14 2.4 2.64 4.28l-5.28.8c-.16-.71-.46-1.25-.9-1.61zm-21.585-11.566l-8.916 4.8c0-.447-.002-.895 0-1.343 2.095-1.12 4.186-2.25 6.28-3.37l2.637-1.42c1.148.59 2.295 1.19 3.443 1.78v-1.82h2.738v3.36l2.75 1.5v1.37l-5.353-2.9-3.58-1.93zM164.806 27.75h-4.26v7.012c0 1.87-.333 3.257-1 4.16-.667.904-1.688 1.356-3.067 1.356-1.57 0-2.97-.163-4.21-.488v-4.738c.66.23 1.16.347 1.51.347.75 0 1.13-.65 1.13-1.93v-10.4h15.49v16.72h-5.61V27.75zm-22.35 12.418c-2.353 0-4.255-.682-5.707-2.046-1.79-1.69-2.68-3.904-2.68-6.643 0-2.55.75-4.66 2.26-6.31 1.51-1.66 3.54-2.48 6.11-2.48 2.93 0 5.14.97 6.64 2.91 1.2 1.56 1.8 3.49 1.8 5.77 0 2.57-.75 4.67-2.24 6.32-1.5 1.64-3.56 2.46-6.2 2.46zm2.014-12.002c-.524-.71-1.172-1.062-1.944-1.062-.818 0-1.494.36-2.027 1.078-.54.718-.8 1.813-.8 3.282 0 1.49.26 2.592.79 3.305.53.71 1.19 1.07 1.99 1.07.81 0 1.47-.36 1.99-1.06s.78-1.83.78-3.39c0-1.45-.26-2.53-.79-3.24zm-18.71-.417h-4.274v12.04h-5.61V23.07h15.496v16.72h-5.612V27.75zm-20.97 12.41c-2.354 0-4.256-.69-5.708-2.05-1.784-1.69-2.675-3.91-2.675-6.65 0-2.55.753-4.65 2.26-6.31 1.508-1.66 3.544-2.48 6.11-2.48 2.93 0 5.146.97 6.644 2.91 1.21 1.56 1.81 3.49 1.81 5.77 0 2.57-.74 4.67-2.24 6.32-1.49 1.64-3.56 2.46-6.19 2.46zm2.013-12.01c-.525-.71-1.172-1.06-1.944-1.06-.82 0-1.5.36-2.03 1.08-.54.72-.8 1.81-.8 3.28 0 1.49.26 2.59.79 3.3s1.19 1.07 1.99 1.07c.81 0 1.47-.35 1.99-1.06s.77-1.83.77-3.39c0-1.45-.26-2.53-.79-3.24zM88.23 40.17c-.863 0-1.65-.168-2.364-.504-.712-.335-1.35-.834-1.91-1.495v7.98H78.29V23.07h5.253v2.47c.726-1.038 1.393-1.74 2-2.108.817-.493 1.723-.74 2.715-.74 1.958 0 3.472.856 4.544 2.566 1.07 1.71 1.606 3.825 1.606 6.344 0 2.78-.584 4.903-1.752 6.367-1.167 1.46-2.642 2.19-4.425 2.19zm-.123-11.813c-.46-.635-1.02-.952-1.682-.952-.717 0-1.315.32-1.793.96-.478.64-.717 1.68-.717 3.116 0 1.32.244 2.3.73 2.94.488.64 1.104.96 1.85.96.65 0 1.198-.31 1.64-.92.44-.61.66-1.65.66-3.12 0-1.35-.23-2.34-.688-2.98zM72.197 39.79H66.57V27.75h-4.067v-4.676h13.76v4.675h-4.067v12.04zM50.89 35.32c.542.724 1.25 1.086 2.124 1.086.55 0 1.075-.158 1.57-.472.305-.2.63-.55.98-1.055l5.53.58c-.847 1.68-1.867 2.88-3.062 3.61-1.195.73-2.91 1.09-5.142 1.09-1.94 0-3.466-.31-4.578-.94-1.112-.63-2.034-1.62-2.764-2.98-.73-1.36-1.096-2.96-1.096-4.79 0-2.62.732-4.73 2.2-6.35 1.464-1.62 3.49-2.43 6.072-2.43 2.096 0 3.75.36 4.963 1.09 1.214.72 2.138 1.77 2.772 3.15.63 1.37.95 3.16.95 5.36V33H50.16c.1 1.03.344 1.79.73 2.3zm4.812-5.368c-.11-1.238-.402-2.125-.876-2.66-.473-.535-1.096-.802-1.868-.802-.89 0-1.604.404-2.137 1.212-.34.503-.55 1.254-.64 2.25h5.53zm123.61 1.456l5.563-8.334h5.286V39.79h-5.3v-8.224l-5.5 8.224h-5.34V23.074h5.31v8.334z"/><path fill-rule="evenodd" fill="#FFF" d="M52.045 26.67c-.502.183-.927.54-1.275 1.067-.34.504-.556 1.254-.648 2.25h1.602c-.17 1.046-.403 2.07-.695 3.07h-.93c.06.664.19 1.218.37 1.663-.59 1.597-1.33 3.12-2.21 4.552l-.01-.005c-1.12-.624-2.04-1.616-2.77-2.975-.73-1.36-1.1-2.957-1.1-4.793 0-2.62.73-4.73 2.2-6.35 1.31-1.45 3.07-2.25 5.27-2.4.12 1.01.18 2.03.18 3.08 0 .28-.01.55-.02.83"/><path fill-rule="evenodd" fill="#444545" d="M209.254 56.39c-.2.446-.507.805-.92 1.078-.41.274-.948.41-1.61.41-.956 0-1.668-.257-2.136-.772-.468-.515-.72-1.064-.758-1.648h-1.258v2.287h-1.58v-5.923h1.58v2.393h1.258c.083-.76.372-1.37.868-1.832.496-.463 1.16-.694 1.99-.694.84 0 1.527.26 2.063.8.54.54.81 1.31.81 2.33 0 .59-.1 1.11-.3 1.56zm-1.658-3.093c-.22-.258-.53-.387-.93-.387-.438 0-.757.14-.957.418-.2.28-.3.724-.3 1.333 0 .79.1 1.31.32 1.59.21.28.54.41.98.41.4 0 .7-.15.91-.46.2-.3.3-.76.3-1.38 0-.75-.11-1.25-.33-1.51zm-10.243 4.448h-3.387v-5.922h1.58v2.46h1.583c.62 0 1.09.043 1.43.133.33.09.61.28.83.577.22.296.33.638.33 1.03 0 .57-.2 1-.59 1.29-.4.288-.99.432-1.78.432zm.407-2.337c-.222-.107-.618-.162-1.188-.162h-1.027v1.506h1.472c.46 0 .755-.074.884-.223.13-.15.2-.33.2-.53 0-.29-.11-.49-.33-.6zm-6.68 2.337h-1.58v-4.657h-1.91v-1.265h5.4v1.265h-1.91v4.657zm-6.59-1.143c.3 0 .544-.085.736-.254.19-.17.325-.46.404-.873l1.55.262c-.16.706-.47 1.24-.926 1.6-.457.36-1.07.54-1.837.54-.873 0-1.568-.272-2.087-.82-.52-.545-.778-1.3-.778-2.268 0-.98.26-1.74.78-2.29s1.225-.82 2.113-.82c.727 0 1.304.15 1.733.46.43.31.736.78.924 1.42l-1.556.28c-.052-.31-.17-.54-.357-.7-.19-.16-.43-.24-.73-.24-.4 0-.71.13-.94.4-.24.27-.35.72-.35 1.35 0 .7.12 1.2.35 1.49.24.29.55.43.96.43zm-6.746 1.277c-.547 0-1.07-.13-1.565-.37-.5-.25-.88-.61-1.14-1.08-.26-.48-.39-1.05-.39-1.73 0-.52.12-1.03.38-1.51.25-.49.62-.86 1.09-1.12.47-.26 1-.39 1.58-.39.9 0 1.64.29 2.22.87.57.58.86 1.32.86 2.2 0 .89-.29 1.64-.88 2.23-.58.59-1.32.88-2.2.88zm1.03-4.45c-.28-.32-.624-.47-1.036-.47-.412 0-.758.15-1.04.47-.28.31-.42.76-.42 1.35 0 .58.14 1.03.42 1.35.282.31.628.47 1.04.47.412 0 .757-.16 1.036-.47.28-.31.418-.77.418-1.36 0-.58-.14-1.03-.418-1.34zm-6.524.41l-1.455 3.9h-1.348l-1.387-3.9v3.9h-1.348v-5.92h1.954l1.483 4.12 1.49-4.13h1.95v5.92h-1.35v-3.89zm-8.718.11l-2.46 3.79h-1.517v-5.92h1.517v3.72l2.426-3.72h1.55v5.92h-1.516v-3.79zm-4.752 3.79h-1.696l-.747-1.71c-.135-.31-.26-.52-.374-.63-.114-.11-.276-.18-.486-.19v2.52h-1.567v-2.52c-.206.01-.35.06-.43.13-.08.07-.222.3-.424.68l-.753 1.71h-1.696l.842-1.64c.42-.81.87-1.28 1.33-1.4-.35-.13-.61-.47-.8-1.01-.14-.4-.27-.65-.38-.73-.12-.08-.39-.12-.8-.12V51.8c.31-.016.52-.025.65-.025.35 0 .64.078.89.23.24.15.48.53.69 1.138.17.474.3.77.4.897.1.125.25.19.45.2v-2.42h1.56v2.42c.2 0 .35-.066.46-.197.1-.13.23-.43.4-.897.21-.6.44-.976.68-1.13.24-.158.55-.235.93-.235.1 0 .31.01.63.03v1.04c-.42 0-.69.04-.8.12-.12.08-.25.32-.38.73-.19.54-.45.88-.8 1.01.46.12.9.59 1.33 1.41l.84 1.64zm-10.476-3.79l-2.46 3.78h-1.517v-5.92h1.517v3.72l2.426-3.72h1.55v5.92h-1.516v-3.78zm-5.213 2.23c0 .46-.17.83-.51 1.12-.34.29-.84.43-1.51.43h-3.76v-5.92h3.46c.71 0 1.24.13 1.59.38.35.25.53.64.53 1.16 0 .33-.09.62-.29.86-.19.25-.43.41-.72.49.41.1.72.29.92.57.21.27.31.57.31.9zm-2.08-3.21c-.2-.11-.56-.16-1.08-.16h-1.02v1.46h1.02c.49 0 .85-.06 1.07-.19.22-.13.33-.32.33-.58 0-.25-.1-.43-.3-.54zm.08 2.41c-.23-.11-.69-.17-1.37-.17h-.81v1.51h1.25c.45 0 .78-.06.98-.16.21-.11.31-.31.31-.58 0-.29-.12-.49-.35-.6zm-6.16 2.34h-4.51v1.56h-1.28v-2.84h.65c.27-.3.49-.76.67-1.39.18-.64.28-1.72.32-3.25h4.82v4.64h.64v2.85h-1.28v-1.56zm-2.82-4.63c-.06 1.63-.32 2.75-.78 3.35h2.69l.01-3.35h-1.91zm-6.97 3.21c.25.25.55.38.91.38.25 0 .46-.07.63-.2.17-.14.3-.35.38-.65l1.58.26c-.2.57-.52 1.01-.95 1.3-.43.3-.98.45-1.63.45-1.04 0-1.8-.34-2.3-1.01-.39-.54-.59-1.22-.59-2.04 0-.98.26-1.75.78-2.3.52-.56 1.17-.84 1.96-.84.89 0 1.59.29 2.1.87.52.58.76 1.47.74 2.67h-3.95c.01.46.14.82.39 1.08zm2.01-2.05c-.01-.45-.13-.8-.35-1.03-.22-.24-.5-.36-.82-.36-.34 0-.63.12-.85.37-.22.25-.33.59-.33 1.02h2.36zm-6.72.98h-2.25v2.48h-1.58V51.8h1.58v2.17h2.26V51.8h1.59v5.92h-1.58v-2.48zm-10.79 1.35c.3 0 .55-.09.74-.26.19-.17.33-.46.41-.87l1.55.26c-.16.7-.47 1.24-.92 1.6-.45.36-1.07.54-1.83.54-.87 0-1.56-.27-2.08-.82-.52-.55-.78-1.3-.78-2.27 0-.98.26-1.74.78-2.29s1.23-.82 2.11-.82c.72 0 1.3.15 1.73.46.43.31.73.79.92 1.42l-1.56.28c-.05-.31-.17-.54-.36-.69-.18-.16-.42-.23-.72-.23-.39 0-.71.13-.94.4-.23.27-.35.72-.35 1.35 0 .702.12 1.2.36 1.49.24.29.56.44.96.44zm-8.92-2.65l-2.46 3.79h-1.51V51.8h1.52v3.72l2.43-3.72h1.55v5.924h-1.52v-3.78zm-7.07 0l-2.46 3.79h-1.52V51.8h1.52v3.72l2.43-3.72h1.55v5.924h-1.52v-3.78zm-6.31 3.79h-4.75V51.8h1.58v4.658h2.26v-4.65H88v4.656h.623v2.83h-1.28v-1.56zm-7.62-.46c-.02-.09-.04-.15-.05-.18-.27.26-.56.46-.86.59-.3.13-.63.2-.98.2-.61 0-1.09-.17-1.45-.5-.35-.33-.53-.75-.53-1.25 0-.34.08-.64.24-.9.16-.26.39-.46.68-.6.29-.14.71-.26 1.26-.36.74-.14 1.25-.27 1.54-.39v-.16c0-.3-.07-.52-.22-.65s-.43-.19-.85-.19c-.28 0-.5.05-.65.16-.16.11-.28.3-.38.57L76 53.38c.16-.573.44-.997.83-1.272.396-.274.98-.41 1.755-.41.705 0 1.23.082 1.574.247.34.166.58.377.72.63.14.256.21.723.21 1.404l-.02 1.83c0 .52.02.9.07 1.15.05.24.14.51.28.79h-1.56c-.04-.11-.1-.26-.16-.46zm-.18-2.38c-.2.07-.52.15-.96.24-.44.1-.72.19-.86.28-.2.15-.31.33-.31.55 0 .22.08.41.25.57.17.16.38.24.63.24.29 0 .56-.09.82-.28.19-.14.32-.31.38-.52.04-.14.06-.39.06-.77v-.32zm-7.04 2.98c-.33 0-.63-.06-.89-.19-.27-.13-.55-.35-.84-.67v3h-1.58v-8.18h1.47v.87c.2-.3.45-.54.78-.73.33-.19.69-.28 1.09-.28.7 0 1.28.27 1.77.81.48.54.73 1.29.73 2.25 0 .99-.25 1.75-.74 2.3-.49.55-1.08.82-1.77.82zm.52-4.5c-.25-.3-.56-.45-.93-.45-.38 0-.7.15-.96.45-.25.29-.38.73-.38 1.31 0 .67.14 1.16.4 1.47.27.31.59.47.97.47.37 0 .68-.15.92-.44.25-.29.37-.77.37-1.44 0-.62-.12-1.08-.37-1.38zm-8.65 2.95c.25.26.55.38.91.38.25 0 .46-.07.63-.2.17-.14.3-.35.38-.65l1.58.26c-.2.57-.52 1.01-.95 1.31-.43.3-.98.45-1.63.45-1.04 0-1.8-.34-2.3-1.01-.39-.54-.59-1.22-.59-2.04 0-.98.26-1.75.77-2.31.52-.56 1.17-.83 1.96-.83.89 0 1.59.29 2.1.87.51.58.76 1.47.74 2.67H64c.01.46.136.82.38 1.08zm2.01-2.05c-.01-.46-.13-.8-.35-1.04-.22-.23-.49-.35-.82-.35-.34 0-.63.12-.85.37-.22.25-.33.59-.33 1.02h2.36zm-6.83-1.19H57.4v4.66h-1.58v-5.92h5.295v5.92h-1.58v-4.66zm-7.96 4.79c-.55 0-1.07-.12-1.57-.37s-.88-.61-1.13-1.08c-.26-.47-.39-1.05-.39-1.73 0-.52.13-1.03.39-1.51.26-.49.62-.86 1.1-1.12.47-.26 1-.39 1.58-.39.91 0 1.64.29 2.22.87.58.58.87 1.32.87 2.2 0 .89-.29 1.632-.87 2.222-.58.59-1.31.883-2.2.883zm1.03-4.44c-.28-.31-.63-.47-1.04-.47-.41 0-.76.16-1.04.47-.28.31-.42.76-.42 1.35 0 .58.14 1.03.42 1.35.28.31.63.47 1.04.47.41 0 .75-.16 1.03-.47.28-.32.42-.77.42-1.36 0-.58-.14-1.03-.42-1.34z"/></svg>