<svg xmlns="http://www.w3.org/2000/svg" width="53" height="52"><path fill-rule="evenodd" fill="#A48ABF" d="M25.69 29.245l5.333-3.406c2.38 1.57 4.76 3.15 7.138 4.73.09.06.19.12.28.18v1.36h-1.27v6.44H24.63v-6.44h-1.27v-1.38c.79-.5 1.56-1 2.35-1.5"/><path fill-rule="evenodd" fill="#6CA4D9" d="M29.61 37.007c1.78-1.135 3.557-2.27 5.335-3.406l7.138 4.74c.09.06.182.12.27.19-.002.46.002.91 0 1.37H41.08v6.45c-1.41.01-2.82 0-4.232 0h-8.31c.002-2.15 0-4.3.002-6.44h-1.273c.002-.46-.002-.922.002-1.383.78-.494 1.56-.995 2.34-1.493"/><path fill-rule="evenodd" fill="#94D3E0" d="M32.448 41.817c1.778-1.136 3.556-2.27 5.334-3.407l7.138 4.74c.09.06.182.116.27.18-3.607 3.892-8.402 6.683-13.813 7.805v-6.44h-1.272c0-.462-.003-.924.002-1.385.782-.495 1.56-.996 2.34-1.493M10.602 26.92l5.334-3.406 7.138 4.74c.09.06.183.117.27.18 0 .456.002.91 0 1.365-.424-.01-.848 0-1.27-.01-.002 2.15-.003 4.3 0 6.45H9.53V29.8c-.423-.002-.847 0-1.27-.002 0-.46-.004-.923 0-1.384.783-.495 1.56-.996 2.342-1.493"/><path fill-rule="evenodd" fill="#A68ABF" d="M22.872.185l1.606 1.067c.09.06.183.118.27.183 0 .454.002.91 0 1.364-.424-.01-.847 0-1.27-.01-.002 2.15-.002 4.3 0 6.45H10.934V4.78C14.384 2.34 18.46.716 22.874.186"/><path fill-rule="evenodd" fill="#F59C47" d="M33.956 1.218l.05.034c.09.06.183.118.272.183-.003.454 0 .91-.002 1.364-.423-.01-.847 0-1.27-.01 0 2.15-.002 4.3 0 6.45H20.462c.002-2.15 0-4.3.002-6.45-.424-.01-.85 0-1.273 0 .01-.46 0-.93.01-1.39l1.31-.83c1.78-.38 3.63-.59 5.53-.59 2.77 0 5.43.43 7.93 1.22"/><path fill-rule="evenodd" fill="#A688BE" d="M1.31 33.964L5.4 31.35l7.14 4.74c.088.06.18.118.27.182-.003.455 0 .91-.002 1.364h-1.27c0 2.15-.002 4.298 0 6.447-1.315.003-2.63 0-3.946 0-2.823-2.81-4.997-6.264-6.282-10.12"/><path fill-rule="evenodd" fill="#F59C47" d="M40.37 34.758l5.333-3.407 4.835 3.21c-1.305 3.62-3.4 6.86-6.075 9.53h-5.166v-6.45h-1.27c0-.46-.004-.92 0-1.38.783-.49 1.56-.99 2.342-1.49"/><path fill-rule="evenodd" fill="#6CA4D9" d="M19.588 43.028c1.78-1.135 3.556-2.27 5.334-3.407l7.138 4.74c.09.06.183.12.272.19-.003.46 0 .91-.002 1.37h-1.27c0 1.77-.002 3.53 0 5.29-1.63.32-3.31.49-5.032.49-2.612 0-5.132-.38-7.51-1.09v-4.68h-1.273c.002-.46-.003-.92.002-1.382.782-.49 1.56-.992 2.342-1.49"/><path fill-rule="evenodd" fill="#EB5859" d="M8.22 43.583c1.778-1.135 3.556-2.27 5.334-3.407l7.138 4.74c.09.06.183.117.27.18 0 .455.002.91 0 1.365h-1.27l-.002 4.45c-4.685-1.16-8.866-3.58-12.158-6.88l.688-.44z"/><path fill-rule="evenodd" fill="#A48ABF" d="M18.63 15.55l5.334-3.405 7.138 4.738c.09.06.182.12.27.182-.002.455.002.91 0 1.364H30.1c-.002 2.14-.003 4.29 0 6.44H17.555c.002-2.15 0-4.3.002-6.45-.425-.01-.85 0-1.274 0 .002-.47-.002-.93.002-1.39l2.342-1.5"/><path fill-rule="evenodd" fill="#EB5859" d="M41.695 14.772c1.78-1.135 3.557-2.27 5.334-3.406l1 .67c2.25 3.53 3.67 7.644 3.96 12.062l-3.07-.002c-2.77 0-5.54.002-8.31 0V17.65h-1.27v-1.388c.78-.495 1.56-.996 2.34-1.493"/><path fill-rule="evenodd" fill="#4BB166" d="M29.67 2.99L32.92.915c3.518.956 6.736 2.626 9.49 4.843v.113h-1.27c0 2.15-.002 4.3 0 6.45H28.597V5.87c-.423-.002-.848 0-1.27 0 0-.462-.004-.924 0-1.385.782-.496 1.56-.996 2.342-1.493"/><path fill-rule="evenodd" fill="#EB5859" d="M11.053 4.698l6.105 4.052c.09.06.182.12.27.182-.002.455.002.91 0 1.365h-1.272v6.447c-1.41.002-2.822 0-4.233 0-2.77 0-5.54.002-8.31 0 .002-1.35 0-2.703 0-4.054C5.5 9.532 8.04 6.806 11.053 4.698"/><path fill-rule="evenodd" fill="#A48ABF" d="M36.62 7.418l4.324-2.76c2.855 1.986 5.29 4.527 7.148 7.464v4.622c-1.41.002-2.822 0-4.233 0-2.77 0-5.54.002-8.31 0v-6.447c-.43-.002-.85 0-1.28 0 0-.462-.01-.924 0-1.385.78-.495 1.56-.996 2.34-1.494"/><path fill-rule="evenodd" fill="#EB5859" d="M27.345 13.07l5.334-3.405c2.37 1.58 4.75 3.16 7.13 4.738.09.06.18.12.27.182v1.364h-1.27c0 2.14-.01 4.29 0 6.44H26.26c.002-2.15 0-4.3.002-6.45-.425-.01-.85 0-1.274 0 .003-.47 0-.93.003-1.39l2.34-1.5"/><path fill-rule="evenodd" fill="#94D3E0" d="M18.397 7.072l5.334-3.406c2.38 1.58 4.76 3.16 7.14 4.738.09.06.19.12.27.182V9.95h-1.27v6.447c-1.41.003-2.82 0-4.23.002-2.77-.01-5.54 0-8.31-.01V9.94h-1.27V8.56c.79-.497 1.56-.997 2.34-1.495"/><path fill-rule="evenodd" fill="#F59C47" d="M33.484 18.262l5.334-3.406 7.138 4.738c.09.06.183.118.27.182 0 .455.002.91 0 1.364h-1.27c-.002 2.15-.003 4.298 0 6.447-1.412.003-2.824 0-4.234 0-2.77 0-5.54.002-8.31 0V21.14h-1.27c0-.46-.004-.922 0-1.383.783-.496 1.56-.997 2.342-1.494"/><path fill-rule="evenodd" fill="#6CA4D9" d="M22.125 21.918c1.778-1.136 3.556-2.27 5.334-3.407l7.13 4.74c.09.06.18.12.27.19v1.37h-1.27v6.45H21.04c.002-2.15 0-4.3 0-6.44h-1.27c0-.46-.004-.922 0-1.383.783-.494 1.562-.995 2.342-1.492m21.17 3.32l5.33-3.4 3.37 2.24c.04.583.064 1.17.064 1.766 0 3.065-.54 6-1.526 8.73h-8.31v-6.45c-.425-.003-.85 0-1.27 0 0-.463-.005-.926 0-1.386.782-.498 1.56-.998 2.34-1.496"/><path fill-rule="evenodd" fill="#4BB166" d="M34.49 26.712c1.78-1.136 3.557-2.27 5.335-3.407l7.138 4.74c.09.06.183.117.27.18 0 .456.002.91 0 1.365h-1.27c-.002 2.15-.003 4.298 0 6.447-1.412.003-2.823 0-4.234 0-2.77 0-5.54.002-8.31 0V29.59h-1.28c0-.46-.01-.923 0-1.383.78-.496 1.56-.997 2.34-1.494"/><path fill-rule="evenodd" fill="#EB5859" d="M18.63 33.287l5.334-3.406 7.138 4.74c.09.06.182.12.27.18-.002.46.002.91 0 1.37H30.1c-.002 2.15-.003 4.3 0 6.45-1.412.01-2.824 0-4.235 0h-8.31c.002-2.15 0-4.3.002-6.45h-1.274c.002-.46-.002-.92.002-1.38.782-.49 1.56-.99 2.342-1.49"/><path fill-rule="evenodd" fill="#50B267" d="M11.086 37.216l5.334-3.406 7.138 4.74c.09.06.183.117.272.18-.003.455 0 .91-.002 1.365h-1.27c-.002 2.148-.002 4.298 0 6.446-1.412.01-2.823.01-4.234.01h-7.88l-.43-.33V40.1c-.423-.003-.847 0-1.27 0 0-.463-.004-.925 0-1.386.783-.495 1.562-.995 2.342-1.493"/><path fill-rule="evenodd" fill="#F59C47" d="M.03 24.536l4.5-2.874c2.378 1.58 4.758 3.16 7.137 4.738.09.06.183.118.27.182 0 .454.002.91 0 1.364h-1.27c-.002 2.15-.002 4.298 0 6.447-1.412.003-2.823 0-4.234 0l-4.975.002C.512 31.717-.004 28.838-.004 25.84c0-.438.01-.872.033-1.304"/><path fill-rule="evenodd" fill="#4BB166" d="M9.944 17.685l5.334-3.406c2.38 1.57 4.758 3.15 7.138 4.73.09.06.182.12.27.18 0 .45.002.91 0 1.36h-1.27c-.002 2.15-.003 4.29 0 6.44H8.872v-6.44h-1.27c0-.46-.004-.93 0-1.39.782-.5 1.56-1 2.342-1.498"/><path fill-rule="evenodd" fill="#6CA4D9" d="M3.452 12.962l1.687-1.077 7.13 4.74c.09.06.18.117.27.18v1.365h-1.27v6.447c-1.41.003-2.83 0-4.24 0H.02c.2-4.23 1.42-8.195 3.43-11.655"/><path fill-rule="evenodd" fill="#6DA3D8" d="M13.284 7.072c1.78-1.135 3.556-2.27 5.334-3.406l7.138 4.738c.09.06.183.12.272.182-.003.455 0 .91-.002 1.364h-1.27c0 2.15-.002 4.3 0 6.447-1.412.003-2.823 0-4.234.002-2.77-.01-5.54 0-8.31-.01.002-2.15 0-4.3.002-6.45H10.94c.003-.46-.002-.93.003-1.39.782-.5 1.56-1 2.34-1.5"/><path fill-rule="evenodd" fill="#A688BE" d="M24.643 44.62l5.334-3.405 7.138 4.738c.09.06.183.118.27.182 0 .455.002.91 0 1.364h-1.27l-.002 2.17c-3.102 1.29-6.51 2.01-10.086 2.01-.828 0-1.647-.04-2.455-.12V47.5c-.424-.002-.848 0-1.272 0 0-.463-.003-.924 0-1.385.784-.496 1.562-.996 2.343-1.494"/><path fill-rule="evenodd" fill="#FFF" d="M15.967 8.108h-.09L7.855 40.23h7.432l2.63-14.712h.09L25.44 40.23h.09l8.157-14.756h.09L36.45 40.23h7.524l-8.02-32.122h-.092l-10.106 18.76-9.79-18.76z"/></svg>