<svg xmlns="http://www.w3.org/2000/svg" width="212" height="121"><path d="M206.98 120.985h-10.707c.018-.07.07-.124.09-.195 1.37-4.23.997-8.618-.963-12.402.285.09.588.16.89.16 1.48 0 2.673-1.19 2.673-2.665v-5.33a2.664 2.664 0 0 0-2.672-2.665c-1.48 0-2.67 1.19-2.67 2.665v5.1a15.86 15.86 0 0 0-5.34-4.265v-.835a2.662 2.662 0 0 0-2.67-2.665c-1.21 0-2.22.817-2.54 1.92-.21-.02-.43-.073-.64-.09a16.236 16.236 0 0 0-4.82-3.678V84.563a2.666 2.666 0 0 0-2.673-2.666c-1.47 0-2.67 1.19-2.67 2.666v9.878l-.5-.05a16.107 16.107 0 0 0-10.19-5.272V41.92c0-1.473 1.2-2.664 2.67-2.664H207c1.48 0 2.677 1.2 2.677 2.67v76.4c0 1.48-1.193 2.67-2.672 2.67zm-29.4-66.627a2.664 2.664 0 0 0-2.67-2.665c-1.47 0-2.67 1.19-2.67 2.665v3.554c0 1.474 1.2 2.665 2.68 2.665 1.48 0 2.675-1.19 2.675-2.665v-3.554zm0 14.214a2.664 2.664 0 0 0-2.67-2.665c-1.47 0-2.67 1.19-2.67 2.665v5.33a2.67 2.67 0 0 0 2.68 2.665c1.48 0 2.675-1.19 2.675-2.665v-5.33zm10.69-14.214c0-1.474-1.19-2.665-2.67-2.665s-2.673 1.19-2.673 2.665v3.554c0 1.474 1.19 2.665 2.67 2.665s2.67-1.19 2.67-2.665v-3.554zm0 14.214c0-1.474-1.19-2.665-2.67-2.665s-2.673 1.19-2.673 2.665v5.33c0 1.475 1.19 2.665 2.67 2.665s2.67-1.19 2.67-2.665v-5.33zm0 15.99c0-1.474-1.19-2.665-2.67-2.665s-2.673 1.19-2.673 2.666v7.568c0 1.48 1.19 2.67 2.67 2.67s2.67-1.19 2.67-2.662V84.57zm10.693-30.204a2.666 2.666 0 0 0-2.672-2.665c-1.48 0-2.67 1.19-2.67 2.665v3.554c0 1.474 1.2 2.665 2.68 2.665a2.67 2.67 0 0 0 2.68-2.665zm0 14.214a2.666 2.666 0 0 0-2.672-2.665c-1.48 0-2.67 1.19-2.67 2.665v5.33a2.67 2.67 0 0 0 2.68 2.665 2.67 2.67 0 0 0 2.68-2.665zm0 15.99a2.666 2.666 0 0 0-2.672-2.665c-1.48 0-2.67 1.19-2.67 2.666v5.33c0 1.474 1.2 2.665 2.68 2.665a2.67 2.67 0 0 0 2.68-2.665v-5.33zm-29.92 15.198c4.32-.59 8.603 1.643 10.69 5.33 3.845-.526 7.777 1.166 10.064 4.3 2.04 2.803 2.58 6.357 1.47 9.752a2.672 2.672 0 0 1-2.48 1.843c-.29.006-58 0-58 0-1.13 0-2.18-.717-2.54-1.843-1.107-3.395-.57-6.95 1.473-9.75 2.286-3.136 6.22-4.828 10.062-4.302 2.087-3.687 6.366-5.92 10.69-5.33 1.862-3.288 5.384-5.426 9.28-5.426 3.895 0 7.417 2.13 9.28 5.42zm-31.927-.042a16.46 16.46 0 0 0-9.425 4.033V54.36c0-1.474 1.2-2.665 2.68-2.665h25.83v37.72a16.184 16.184 0 0 0-8.41 4.975c-4.08.337-7.93 2.274-10.67 5.33zm11.066-42.695h-12.474a2.665 2.665 0 0 0-2.672 2.666c0 1.47 1.194 2.66 2.673 2.66h12.48a2.67 2.67 0 1 0-.01-5.34zm0 10.66h-12.474a2.665 2.665 0 0 0-2.672 2.666c0 1.47 1.194 2.66 2.673 2.66h12.48c1.48 0 2.67-1.19 2.67-2.67s-1.2-2.67-2.68-2.67zm2.672 13.326c0-1.48-1.193-2.67-2.672-2.67h-12.474a2.664 2.664 0 0 0-2.672 2.66c0 1.47 1.194 2.66 2.673 2.66h12.48c1.48 0 2.67-1.19 2.67-2.67zm-41.85 8.7c-4.035-4.5-9.695-7.35-15.695-7.84a23.739 23.739 0 0 0-12.36-7.32V19.08h37.99c2.17 0 3.93 1.75 3.93 3.92v72.636a24.178 24.178 0 0 0-13.86-5.93zm2.07-62.79H92.732a3.919 3.919 0 1 0 0 7.84h18.342a3.919 3.919 0 1 0 0-7.84zm0 15.673H92.732a3.919 3.919 0 1 0 0 7.837h18.342a3.919 3.919 0 1 0 0-7.837zm0 15.675H92.732a3.919 3.919 0 1 0 0 7.84h18.342a3.919 3.919 0 1 0 0-7.84zm-6.006 39.34c5.65-.77 11.44 1.72 14.8 6.33 3.007 4.12 3.798 9.35 2.17 14.34-.532 1.66-2.08 2.71-3.733 2.71 0 0-84.86.01-85.29 0a3.917 3.917 0 0 1-3.65-2.71c-1.622-4.99-.83-10.22 2.173-14.34 3.36-4.61 9.145-7.1 14.797-6.32 3.07-5.42 9.37-8.7 15.722-7.84 2.73-4.84 7.91-7.98 13.64-7.98s10.91 3.15 13.648 7.98c6.36-.87 12.65 2.42 15.72 7.84zM58.095 81.87c-.235.027-.497.053-.733.08V67.42c0-2.17-1.755-3.92-3.93-3.92a3.919 3.919 0 0 0-3.93 3.92V84.3a23.756 23.756 0 0 0-7.1 5.407c-.316.027-.63.105-.944.13a3.914 3.914 0 0 0-3.748-2.82 3.919 3.919 0 0 0-3.93 3.92v1.23c-3.014 1.49-5.713 3.604-7.862 6.27v-7.5a3.92 3.92 0 0 0-3.93-3.92 3.919 3.919 0 0 0-3.93 3.92v7.84c0 2.17 1.755 3.92 3.93 3.92.445 0 .89-.105 1.31-.235-2.882 5.57-3.433 12.02-1.415 18.24.027.11.106.19.132.29H6.263a3.918 3.918 0 0 1-3.93-3.92V4.715c0-2.17 1.755-3.92 3.93-3.92h62.885a3.92 3.92 0 0 1 3.93 3.92V74.11a23.722 23.722 0 0 0-14.99 7.76zM25.915 23a3.92 3.92 0 0 0-3.93-3.92 3.918 3.918 0 0 0-3.93 3.92v5.226c0 2.17 1.754 3.92 3.93 3.92a3.92 3.92 0 0 0 3.93-3.92zm0 20.903a3.92 3.92 0 0 0-3.93-3.918 3.918 3.918 0 0 0-3.93 3.92v7.836c0 2.17 1.754 3.92 3.93 3.92a3.92 3.92 0 0 0 3.93-3.92zm0 23.516a3.92 3.92 0 0 0-3.93-3.92 3.918 3.918 0 0 0-3.93 3.92v7.83c0 2.17 1.754 3.92 3.93 3.92a3.92 3.92 0 0 0 3.93-3.92zM41.638 23c0-2.17-1.755-3.92-3.93-3.92a3.919 3.919 0 0 0-3.93 3.92v5.22c0 2.17 1.755 3.92 3.93 3.92 2.175 0 3.93-1.75 3.93-3.92zm0 20.9c0-2.17-1.755-3.92-3.93-3.92a3.919 3.919 0 0 0-3.93 3.92v7.83c0 2.17 1.755 3.92 3.93 3.92 2.175 0 3.93-1.75 3.93-3.92zm0 23.51c0-2.17-1.755-3.92-3.93-3.92a3.919 3.919 0 0 0-3.93 3.92v11.13c0 2.17 1.755 3.92 3.93 3.92 2.175 0 3.93-1.75 3.93-3.92V67.42zm15.72-44.43a3.92 3.92 0 0 0-3.93-3.92 3.919 3.919 0 0 0-3.93 3.92v5.22c0 2.17 1.755 3.92 3.93 3.92a3.92 3.92 0 0 0 3.93-3.92zm0 20.9a3.92 3.92 0 0 0-3.93-3.92 3.919 3.919 0 0 0-3.93 3.92v7.836c0 2.17 1.755 3.92 3.93 3.92a3.92 3.92 0 0 0 3.93-3.92z" fill="#f5f5f5" fill-rule="evenodd"/></svg>