<svg xmlns="http://www.w3.org/2000/svg" width="80" height="15"><defs><clipPath id="a"><path d="M0 841.89h595.28V0H0z"/></clipPath></defs><g clip-path="url(#a)" transform="matrix(.3705 0 0 -.36437 -71.11 274.59)" fill="#909090"><path d="M219.038 753.447h18.88l-8.703-40.877h-8.193l7.002 32.91-7.313-.027h-1.75c-4.1 0-6.4-.17-6.91-.51-2.57-.662-4.93-2.07-7.08-4.224-2.36-2.59-3.81-5.17-4.36-7.74-.66-3.18-.05-6.1 1.82-8.76 1.32-1.57 2.54-2.52 3.66-2.84 1.08-.61 3.07-.91 5.98-.91h5.7l-1.7-7.91h-6.84c-5.04 0-9.04 1.33-11.99 3.99-2.09 2-3.4 3.81-3.91 5.44-1.4 3.36-1.73 6.8-.99 10.32l.26 1.19c1.06 4.91 3.87 9.42 8.42 13.52 2.69 2.17 4.8 3.54 6.35 4.11 1.14.57 2.66 1.1 4.57 1.62 1.7.45 4.08.68 7.15.68m20.85-.01H252c2.13 0 3.66-.64 4.6-1.92.424-.5.693-.99.806-1.46.26-.94.3-1.85.117-2.75l-.12-.53c-.293-1.38-1.175-2.72-2.643-4.03-.913-.73-1.71-1.2-2.385-1.41 1.22-1.69 1.54-3.92.95-6.69h-3.79l.06.28c.437 2.05-.05 3.68-1.46 4.89-.8.67-1.96 1-3.49 1h-7.41l.77 3.62h12.3c1.35 0 2.4.66 3.15 1.99.12.27.2.49.26.67.16.74-.01 1.41-.5 2.01-.446.41-.96.62-1.55.62 0 .03-.186.05-.55.05h-12zm20.32-.01h18.89l-.76-3.64h-7.55l-3.22-15.13h-3.81l3.22 15.13h-7.54zm-6.91-35.38c.63 0 1.11.11 1.43.32.33.21.54.54.63.97.12.48.08.81-.14.97-.22.17-.6.25-1.15.25h-10.23c-1.13 0-1.78-.4-1.95-1.19-.12-.51-.07-.86.14-1.05.22-.19.67-.29 1.37-.29zm10.45-1.77c-.29-1.25-.92-2.19-1.88-2.8-.96-.62-2.13-.92-3.5-.92h-22.55c-1.33 0-2.33.35-3.02 1.05-.69.7-.875 1.7-.56 3l2.925 12.64c.124.58.37 1.11.744 1.59.37.48.82.89 1.35 1.24.53.35 1.12.62 1.77.81.65.19 1.31.29 1.983.29h24.79c.46 0 .84-.16 1.156-.47.315-.32.42-.68.327-1.09l-.58-2.49c-.05-.19-.143-.37-.29-.54-.142-.17-.32-.32-.52-.45-.204-.13-.42-.24-.65-.33-.23-.09-.45-.13-.67-.13h-19c-.7 0-1.184-.07-1.462-.22s-.475-.5-.595-1.05c-.1-.36.01-.63.323-.8.313-.17.626-.27.94-.29h15.97c1.036 0 1.86-.11 2.476-.33.613-.216 1.065-.5 1.354-.866.29-.36.44-.79.46-1.28.01-.498-.04-1.03-.16-1.61zm26.38 22.07c-1.44 0-3.4.19-4.792 1.76-1.42 1.59-1.53 3.89-1.53 5.55 0 2.15.193 4.36 1.463 5.85 1.506 1.76 3.85 1.89 4.927 1.89h6.04v-2.26h-4.71c-1.68 0-3.1-.11-3.96-1.4-.45-.67-.84-1.81-.84-4.04 0-2.26.41-3.19.71-3.66.773-1.18 2.15-1.44 3.94-1.44h5.1v-2.26zm11.746 3.37c.88-1.14 2.13-1.29 3.83-1.29 1.265 0 2.88.04 3.85 1.29.56.71.944 1.93.944 4.15 0 2.26-.365 3.44-.946 4.17-.966 1.23-2.6 1.27-3.85 1.27-1.31 0-2.84-.04-3.83-1.27-.6-.75-.966-1.87-.966-4.17 0-2.15.34-3.36.966-4.15m9.853 10.26c1.53-1.5 1.7-4.13 1.7-6.11 0-1.62-.06-4.5-1.7-6.11-1.61-1.59-4.3-1.59-6-1.59-1.78 0-4.34 0-6 1.59-1.74 1.68-1.74 4.41-1.74 6.11 0 2.04.11 4.56 1.74 6.11 1.68 1.59 4.17 1.59 6 1.59 1.74 0 4.362 0 6-1.59m3.63-11.38h6.924c.26 0 1.336.02 1.79.28.69.38.73 1.22.73 1.82 0 .47-.02 1.25-.536 1.7-.13.11-.54.41-1.72.41h-6.89v2.26h6.52c.97 0 1.66.13 1.98.47.39.41.362 1.12.362 1.57 0 .56.02 1.27-.493 1.7-.36.3-.86.32-1.31.32h-7.27v2.26h7.92c.99 0 2.215.02 3.16-.93.84-.86.92-2.02.92-3.14 0-.97-.06-1.9-.86-2.65-.344-.32-.796-.56-1.27-.67v-.085c.82-.04 1.59-.43 1.98-1.118.28-.48.43-1.23.43-2.46 0-1.08-.086-2.63-1.355-3.42-.86-.54-2.197-.61-3.23-.61H315.4zm17.183 0h9.14l-4.22 9.76c-.06.13-.17.47-.34.47s-.32-.35-.365-.48zm2.17 11.38c.39.86.88 1.59 2.41 1.59 1.336 0 1.94-.52 2.41-1.59l5.057-11.38h1.27v-2.26h-17.5v2.26h1.27z"/><path d="M351.084 744.19h5.788l-2.452 6.132c-.087.215-.238.623-.432.623-.193 0-.344-.408-.43-.623zm.43 7.702c.54 1.27 1.12 1.7 2.474 1.7 1.292 0 1.937-.43 2.475-1.7l5.68-13.532h-2.99l-1.55 3.808h-7.25l-1.528-3.808h-2.99zm24.78-13.532h-2.84v6.626h-7.83v-6.626h-2.84v15.06h2.84v-6.175h7.83v6.175h2.84zm14.066 0l.086 11.445c0 .237-.02.495-.215.495-.17 0-.34-.345-.55-.69l-6.19-10.002c-.41-.667-.86-1.42-2.39-1.42-2.17 0-2.21 1.72-2.21 2.58v12.652h2.84l-.06-11.23c0-.345-.02-.69.26-.69.18 0 .28.26.41.474l6.07 9.94c.82 1.333 1.49 1.677 2.52 1.677 2.26 0 2.3-1.95 2.3-2.71v-12.52zm7.696 0c-.646 0-1.226 0-1.72.473-.517.495-.56 1.184-.56 1.764v10.67c0 .603.194 1.206.516 1.57.495.54 1.226.583 1.807.583h9.66v-2.26h-8.14c-.26 0-.56-.02-.78-.215-.24-.215-.24-.516-.24-.73v-3.035h8.92v-2.26h-8.92v-3.526c0-.237.09-.474.22-.582.17-.172.51-.193.97-.193h8.04v-2.26zm-113.44-25.763c-1.442 0-3.4.193-4.798 1.764-1.42 1.6-1.527 3.9-1.527 5.55 0 2.16.2 4.37 1.47 5.86 1.51 1.77 3.85 1.9 4.93 1.9h6.05v-2.26h-4.71c-1.68 0-3.1-.1-3.96-1.4-.45-.66-.84-1.8-.84-4.04 0-2.26.41-3.18.71-3.65.78-1.18 2.15-1.44 3.94-1.44h5.1v-2.26z"/><path d="M296.208 718.427h5.787l-2.453 6.132c-.085.21-.236.62-.43.62s-.344-.41-.43-.63zm.43 7.702c.538 1.26 1.12 1.69 2.474 1.69 1.29 0 1.936-.43 2.474-1.7l5.68-13.53h-2.99l-1.55 3.8h-7.25l-1.527-3.81h-3zm16.195 4.94c.108-.37.344-.71.603-.95.473-.41 1.075-.45 1.57-.45.516 0 1.118.04 1.592.45.26.23.495.58.603.94h2.05c-.21-.76-.73-1.72-1.46-2.26-.75-.56-1.85-.73-2.77-.73-1.12 0-2.11.26-2.75.73-.73.54-1.24 1.5-1.46 2.26zm6.562-18.48l.086 11.44c0 .23-.02.49-.21.49-.17 0-.34-.35-.56-.69l-6.19-10c-.4-.67-.86-1.42-2.38-1.42-2.17 0-2.21 1.72-2.21 2.58v12.65h2.84l-.06-11.23c0-.35-.02-.69.26-.69.18 0 .28.26.41.47l6.07 9.94c.82 1.33 1.49 1.68 2.52 1.68 2.26 0 2.31-1.96 2.31-2.71v-12.52zm9.785 0v12.8h-5.875v2.26h14.608v-2.26h-5.895v-12.8zm11.397 5.83h5.788l-2.452 6.13c-.087.21-.238.62-.432.62-.19 0-.34-.41-.42-.62zm.43 7.7c.54 1.26 1.12 1.69 2.474 1.69 1.3 0 1.94-.43 2.48-1.7l5.68-13.53h-2.99l-1.55 3.8h-7.25l-1.53-3.81h-2.99z"/></g></svg>